<?xml version="1.0" encoding="UTF-8" standalone="no"?>
<svg
   xmlns:dc="http://purl.org/dc/elements/1.1/"
   xmlns:cc="http://creativecommons.org/ns#"
   xmlns:rdf="http://www.w3.org/1999/02/22-rdf-syntax-ns#"
   xmlns:svg="http://www.w3.org/2000/svg"
   xmlns="http://www.w3.org/2000/svg"
   xmlns:xlink="http://www.w3.org/1999/xlink"
   xmlns:sodipodi="http://sodipodi.sourceforge.net/DTD/sodipodi-0.dtd"
   xmlns:inkscape="http://www.inkscape.org/namespaces/inkscape"
   version="1.0"
   width="900"
   height="657.82391"
   id="svg2"
   inkscape:version="0.91 r13725"
   sodipodi:docname="Flag_of_Senegal.svg">
  <metadata
     id="metadata28">
    <rdf:RDF>
      <cc:Work
         rdf:about="">
        <dc:format>image/svg+xml</dc:format>
        <dc:type
           rdf:resource="http://purl.org/dc/dcmitype/StillImage" />
        <dc:title></dc:title>
      </cc:Work>
    </rdf:RDF>
  </metadata>
  <defs
     id="defs26" />
  <sodipodi:namedview
     pagecolor="#ffffff"
     bordercolor="#666666"
     borderopacity="1"
     objecttolerance="10"
     gridtolerance="10"
     guidetolerance="10"
     inkscape:pageopacity="0"
     inkscape:pageshadow="2"
     inkscape:window-width="1600"
     inkscape:window-height="837"
     id="namedview24"
     showgrid="false"
     fit-margin-top="0"
     fit-margin-left="0"
     fit-margin-right="0"
     fit-margin-bottom="0"
     inkscape:zoom="0.68111408"
     inkscape:cx="450"
     inkscape:cy="287.38574"
     inkscape:window-x="-8"
     inkscape:window-y="-8"
     inkscape:window-maximized="1"
     inkscape:current-layer="svg2" />
  <path
     style="fill:#fdef42"
     d="m 372.12109,0.00346509 c -0.73544,-0.04331 -2.07718,0.325679 -2.44336,0.753906 -0.0439,0.05241 -0.37456,0.71076501 -0.42773,0.81250001 -0.23199,0.440852 -1.08065,4.021871 -1.26562,4.736328 -1.00271,1.136039 -3.01539,3.013075 -4.76954,2.91211 l -0.96679,-0.199219 c -0.35222,-0.07245 -0.81912,-0.199611 -1.10352,-0.457031 -0.83083,-1.686331 -2.17423,-4.158305 -3.4043,-5.566407 -0.14181,-0.163392 -1.00475,-0.511579 -1.23828,-0.558593 -2.59115,-0.521777 -3.91669,1.80078 -5.19531,3.6875 -0.0239,0.03699 -0.13621,0.442712 -0.15625,0.509765 -0.31214,1.018119 -0.56179,1.779646 0.20508,2.691406 0.46706,0.220426 1.02734,0.5607 1.51367,0.7148439 0.56108,0.177265 0.96053,-0.1070479 1.58789,0.40625 0.36609,0.299039 1.1322,1.384885 0.97266,1.908203 l -0.38672,0.933594 c -0.17649,0.430061 -0.41537,0.789401 -0.82617,1.042969 -1.61157,0.996538 -5.01634,1.438778 -6.69727,0.474609 l -0.27344,-0.314453 c -1.0898,-0.16108 -1.95763,-0.376992 -3.00195,-0.808594 l -0.93945,0.294922 c -0.11175,0.127169 -1.0727,1.245132 -1.13281,1.289063 -0.56417,0.413106 -1.39026,0.62389 -1.99219,1 -1.51754,0.950296 -3.03625,2.541922 -4.83203,2.951172 -2.01004,0.05395 -2.8615,-1.982226 -4.33204,-2.167969 -0.71523,-0.09017 -1.63632,0.215173 -2.32226,0.06641 -0.67052,-0.145666 -1.33024,-0.574267 -2,-0.720703 -0.87014,-0.190367 -2.19027,-0.370998 -3.07813,-0.392578 -1.26245,-0.03083 -2.988,2.529325 -4.33984,2.617187 -0.9765,0.06397 -2.00048,-0.134392 -2.97851,-0.07813 -0.8948,0.05164 -1.40656,1.068427 -2,1.587891 -0.45628,0.399232 -1.0474,0.752532 -1.54297,1.109375 -0.242,0.09634 -2.50763,1.016965 -2.58008,1.029297 -0.24586,0.04162 -0.38814,-0.05517 -0.63477,-0.08984 -1.2108,-0.17187 -2.37901,-0.466615 -3.1875,-1.482422 -0.3368,-0.994227 -0.56407,-2.100566 -0.67968,-3.142578 l -1.5,-1.697266 c -0.29211,-0.330638 -0.42168,-0.553653 -0.75,-0.849609 -0.14106,-0.12871 -0.26523,-0.136747 -0.43555,-0.224609 -1.30329,-0.670524 -1.61645,-0.677119 -2.9336,-0.03125 -0.18575,0.09094 -0.31588,0.103712 -0.47851,0.232422 -0.22284,0.176414 -0.39569,0.442875 -0.57422,0.71289 l 0,450.046877 c 0.0549,0.001 0.11129,0.005 0.16602,0.006 -0.0832,-2.33219 0.58885,-5.98566 1.3457,-8.19531 0.6659,-1.93606 1.2425,-4.05068 2.03711,-5.92969 0.27052,-0.64355 0.94713,-1.45507 1.33789,-2.05469 l 0.30664,-0.43945 c 1.26012,-1.82275 2.04379,-2.64384 3.61914,-4.30859 0.46474,-0.49172 0.68469,-0.81583 1.19336,-1.25977 l 3.14062,-2.29883 c 0.61272,-0.44855 0.92558,-0.74654 1.56836,-1.15039 0.47939,-0.30135 1.28066,-0.40181 1.8086,-0.64844 0.68286,-0.31831 1.31607,-0.83993 2.00586,-1.13281 0.37688,-0.15953 1.0009,-0.22468 1.41015,-0.3164 3.55224,-0.79615 4.19958,-0.98966 7.79883,-0.28907 0.42929,0.0832 0.69344,0.0537 1.09961,0.21485 1.66937,0.66513 4.28787,2.19106 5.97266,3.05273 0.29287,0.14952 1.47876,0.0232 1.7539,-0.0254 l 1.31055,-0.23242 c 2.4293,-0.87786 5.80065,-2.43229 8.04883,-3.79492 1.18382,-0.71753 2.27444,-1.61747 3.46289,-2.32422 1.58845,-0.94413 7.29978,-4.18726 9.25586,-4.71289 l 1.23437,-0.0508 c 3.10215,0.44856 4.7812,1.45338 7.57813,2.75976 0.0725,0.0339 0.60355,0.0255 0.7207,0.0586 1.60463,0.45242 4.40298,1.92448 6.02149,1.71484 1.22005,-0.15877 2.61655,-0.63951 3.82812,-0.67188 1.10675,-0.0301 2.41572,0.38824 3.53711,0.47071 0.50636,0.037 1.1559,-0.1708 1.64453,-0.0899 2.33837,0.38998 4.90437,1.88392 7.02539,2.87891 2.05859,0.96571 3.51917,2.01907 5.23633,3.44336 0.87168,0.72216 1.95465,1.53039 2.55273,2.52539 1.13989,1.89443 2.05033,4.64082 2.41797,6.79883 0.21348,1.25859 0.19776,2.71516 0.29102,3.99609 0.0994,1.37111 2.66919,3.47581 3.73047,4.27735 1.44201,1.08826 3.11221,2.04595 4.75,2.80664 l 1.92968,0.89257 c 2.26128,0.76918 4.20738,-1.48885 5.89063,-2.58789 2.6189,-1.71023 6.09303,-2.68459 9.07031,-3.38672 l 0.004,0.13868 2.32617,-0.16407 -0.002,-0.13867 c 3.43124,-0.121 4.95082,0.65323 7.95508,2.08985 0.58575,0.27977 1.33976,0.55161 1.87695,0.89843 1.49674,0.96417 2.85203,2.19316 4.11523,3.43555 0.35376,0.34837 1.86231,1.99958 2.04883,2.42578 1.09288,2.50638 1.69214,5.28998 2.80274,7.78711 0.02,0.0439 1.58859,2.20378 1.69726,2.33789 2.00927,2.52102 7.37895,5.4029 10.04102,6.95899 0.41695,0.24355 0.75882,0.70686 1.17578,0.95117 0.90174,0.52949 2.05367,0.93836 3.00781,1.37305 2.51794,1.14913 3.28822,1.45702 6.05664,1.42773 0.35993,-0.004 0.57161,0.0696 0.92383,-0.01 1.2871,-0.29056 1.98531,-0.57059 3.25391,-0.93359 l 6.50585,-1.86328 c 1.38575,-0.39615 3.52727,-2.51989 4.55079,-3.46094 0.0709,-0.0655 0.63748,-0.2069 0.75,-0.2832 0.52178,-0.35376 0.98861,-0.94917 1.52734,-1.25977 2.60965,-1.50752 5.45407,-2.52665 8.21094,-3.70508 0.9002,-0.38536 1.83798,-1.09291 2.75976,-1.375 0.10712,-0.0331 0.60581,0.0598 0.7168,0.0274 l 5.12109,-1.5 0.3125,0.30859 c 1.45819,0.17495 5.52422,0.56085 6.95313,0.24024 1.18459,-0.26667 2.53687,-0.90525 3.69141,-1.31836 0.21657,-0.0771 0.46845,-0.14313 0.67578,-0.24024 0.89249,-0.41618 1.87237,-0.98134 2.79492,-1.30273 0.87632,-0.3052 3.38147,-0.9439 4.3418,-0.69727 l 0.14062,0.44727 c 1.68556,0.679 3.57213,1.28366 5.19141,2.08984 1.12217,0.55799 5.02528,3.04992 5.96093,4.01563 1.02505,1.05819 1.69087,2.60272 2.73828,3.63086 1.32332,1.29711 2.8677,2.60459 4.07618,3.99804 0.79847,0.9187 1.66715,2.98268 2.46484,3.77344 1.0004,0.99191 1.02324,0.4696 1.98047,1.96094 0.11869,0.18266 0.2345,0.25871 0.30078,0.4668 0.82158,2.5873 -1.45046,8.41721 -2.74219,10.64843 -0.45781,0.79076 -1.09818,1.57241 -1.62304,2.32617 -0.0555,0.0794 -0.18147,0.17596 -0.25391,0.2461 -0.474,0.45857 -1.01775,1.11228 -1.54492,1.49609 -2.19732,1.60387 -5.85903,3.85331 -8.72071,3.83789 l -0.4121,-0.30468 c -1.77111,0.45857 -2.81887,0.23185 -4.51368,0.24804 -0.56493,0.005 -1.17647,0.10421 -1.74218,0.1543 -0.0617,0.005 -0.13952,0.044 -0.20118,0.0625 -0.65973,0.20732 -1.57827,0.38497 -2.18945,0.68555 -2.0925,1.02814 -3.20509,2.28158 -5.75,2.84961 -1.0713,0.23892 -2.25982,0.22944 -3.34961,0.4121 -0.40694,0.0686 -0.82039,0.29921 -1.22656,0.35547 -0.5264,0.0725 -1.45875,0.13723 -1.98438,0.0879 -0.60347,-0.057 -1.07398,-0.49407 -2.22851,-0.46093 -1.52758,0.0432 -3.19534,0.4537 -4.71289,0.66797 -0.0963,0.0146 -0.23179,0.0797 -0.32813,0.11132 -0.95724,0.32062 -2.74002,0.67983 -3.21093,1.71875 l -0.71875,3.3418 c -0.14027,0.65204 -0.15242,1.03639 -0.35743,1.66992 -0.0709,0.21658 -0.20687,0.29159 -0.33789,0.47656 -0.97958,1.38113 -1.69561,1.85219 -3.43359,2.01172 -0.0917,0.008 -0.39183,-0.14283 -0.48047,-0.13281 -0.71831,0.0755 -1.46724,0.19887 -2.18555,0.23047 -1.26166,0.0555 -2.57807,-0.13838 -3.83203,-0.0312 -0.8501,0.0725 -6.36384,0.72686 -6.83398,0.34766 -0.81311,-0.65742 -2.1789,-1.96178 -3.03516,-2.45118 -0.0116,-0.007 -2.01116,-0.46135 -2.05664,-0.46289 -0.88786,-0.0154 -1.90366,0.31334 -2.80078,0.375 -0.6081,0.0432 -1.2797,-0.11662 -1.88086,-0.0488 -1.87131,0.20887 -3.7723,0.59699 -5.63281,0.89063 -0.0725,0.0108 -0.57343,-0.195 -0.6875,-0.20117 -0.64432,-0.0339 -1.38364,0.13875 -2.01563,0.0586 -1.84664,-0.23584 -4.3035,-1.31162 -5.875,-2.24805 -0.62428,-0.37225 -4.83246,-3.75692 -5.34961,-4.32031 -0.91561,-1.00039 -1.74101,-2.26947 -2.57031,-3.35156 -0.1079,-0.0308 -0.75135,-0.22857 -0.82226,-0.23242 -1.42429,-0.0855 -2.93842,-0.0852 -4.34961,-0.26172 -0.56262,-0.0709 -1.15222,-0.39435 -1.71485,-0.49609 -0.0809,-0.0146 -0.36783,0.12514 -0.44336,0.10742 -1.13296,-0.26821 -3.78188,-0.80423 -4.77148,-1.42774 -0.56802,-0.35685 -1.1203,-0.82106 -1.66211,-1.21875 -0.42159,-0.30829 -1.09267,-0.68747 -1.44336,-1.05664 -0.75453,-0.79308 -1.61748,-2.71725 -2.83984,-2.86523 -1.48825,0.0994 -2.83194,0.88611 -4.11133,1.55664 -0.40231,0.2104 -0.58845,0.42577 -1.0293,0.53906 -0.437,0.11253 -4.70406,-0.18776 -5.34375,-0.52148 -3.1268,-1.62467 -10.83987,-5.28338 -13.09961,-7.98242 -0.2212,-0.26282 -0.26835,-0.46345 -0.43945,-0.76172 -0.7237,-1.26552 -0.8878,-1.84785 -1.9668,-2.74805 -0.37226,-0.30983 -0.98105,-0.62809 -1.48047,-0.68359 -0.057,0.0224 -0.51486,0.21484 -0.54492,0.21484 -2.54491,-0.0447 -5.08625,0.12212 -7.33984,-1.28906 -1.15762,-0.72525 -2.1793,-1.7825 -3.35157,-2.47461 -0.98343,-0.57958 -4.00903,-0.5238 -5.21289,-0.69336 -1.71716,-0.24046 -3.27594,-0.79658 -4.94531,-1.17578 -0.27977,-0.064 -0.65058,0.02 -0.92187,-0.0586 -1.43354,-0.41465 -3.0713,-1.36841 -4.34375,-2.11523 -0.53642,-0.31446 -1.01287,-0.78109 -1.55469,-1.08399 -1.15762,-0.64432 -2.41039,-1.19597 -3.59961,-1.78711 -0.27361,-0.13486 -0.51663,-0.35089 -0.76172,-0.53124 -2.32295,-1.71178 -4.80085,-3.36743 -7.03516,-5.18555 l -2.70703,-2.5625 -1.35351,-1.28125 -0.0391,-0.37891 c -1.58074,-1.91908 -2.30918,-3.46773 -3.4668,-5.67969 -0.12177,-7.7e-4 -1.47775,-0.0237 -1.50781,-0.0137 -2.18961,0.68979 -5.88913,2.60505 -7.75196,4.00391 l -0.44531,-0.0273 c -0.84933,1.05049 -1.47576,1.35212 -2.33203,2.13671 -1.0898,0.99885 -2.7821,2.91327 -3.33008,4.25586 -0.44393,1.0898 -0.88184,2.46363 -1.18164,3.60352 -0.14105,0.54413 -0.0857,1.17744 -0.21289,1.72851 -0.0455,0.19499 -0.45441,1.09883 -0.46289,1.2129 -0.0647,0.95722 0.2059,1.9999 0.17969,2.96484 -0.0555,2.00772 -0.98179,3.83432 -2.02149,5.48828 l -0.6914,1.10352 c -1.30791,1.46437 -2.83068,2.84014 -4.21875,4.23437 -0.48093,0.48247 -1.16638,0.83301 -1.6211,1.33399 -0.12717,0.13873 -0.65777,0.91182 -0.74023,0.97656 -2.20734,1.73797 -5.11373,2.15695 -7.74805,2.89453 -1.98692,0.55646 -5.04029,1.4298 -7.2168,0.98047 -1.46359,-1.04355 -2.94251,-2.28134 -4.5957,-3.00196 -1.16301,-0.5079 -1.4753,-0.0331 -2.32617,-0.13867 -0.33295,-0.0416 -0.50993,-0.12688 -0.83594,-0.20703 l -1.67187,-0.41016 c -0.62582,-0.24045 -1.20272,-0.81371 -1.83008,-1.04492 -0.13102,-0.0478 -1.05249,-0.0339 -1.23438,-0.084 L 299,496.80815 l 0,86.03516 c 1.64426,-1.34971 3.42879,-3.67032 5.25391,-3.75781 2.55031,-0.12177 3.21071,3.21418 5.33789,2.59375 0.86012,-0.63276 0.78583,-2.15784 2.26562,-2.90235 l 0.51172,0.30665 c -0.0624,0.57957 -0.36357,1.01729 -0.4707,1.53906 -0.21349,1.04664 0.59483,2.93448 -0.21289,3.74218 l -0.72657,0.34961 c -1.63085,-0.35453 -3.00344,-0.9298 -4.57031,-1.45312 -0.66282,-0.79076 -1.03921,-1.69918 -1.96484,-2.24023 l -0.68164,0.39648 c -0.19653,0.57187 -1.14944,3.38064 -1.36524,3.65039 l -0.48633,0.23437 c -0.33834,0.16417 -0.15391,0.10025 -0.55468,0.17579 -0.97052,0.18166 -1.70164,0.4882 -2.33594,0.76367 l 0,40.95508 c 0.54679,-0.17627 1.10174,-0.33501 1.60156,-0.51172 l 0.36719,-0.52539 c 0.72447,-0.1973 1.74081,-0.35336 2.41211,-0.65625 1.71176,-0.77303 5.03282,-2.9602 6.51953,-4.30664 0.27438,-0.24894 0.484,-0.68819 0.77149,-0.91016 0.45472,-0.34991 1.07957,-0.55799 1.55664,-0.88477 1.20309,-0.82313 2.60103,-1.86539 3.67773,-2.84961 1.69249,-1.54606 3.15921,-3.45745 5.29102,-4.46093 1.86283,-0.87784 3.90558,-1.47483 5.80078,-2.29102 0.86705,-0.37303 1.73183,-0.88362 2.57422,-1.31445 0.16647,-0.0856 0.34201,-0.22409 0.5,-0.32813 1.58845,-1.04587 3.2477,-2.32878 4.91015,-3.23437 1.82891,-0.99654 3.95966,-1.77968 5.86719,-2.63672 0.4185,-0.18728 1.30778,0.23115 2.27734,-0.54883 3.22392,0.39154 6.4973,0.0447 9.73047,0.17578 0.47553,0.0193 1.03803,0.30139 1.50586,0.28907 1.46899,-0.037 2.95993,-0.39553 4.42969,-0.43946 0.67054,-0.02 1.40848,0.23299 2.08594,0.2461 1.06899,0.0208 2.16739,-0.12568 3.24023,-0.14649 1.69789,-0.0331 3.41503,0.13333 5.11524,0.14258 10.60971,0.0578 21.21059,0.14722 31.82031,0.34375 0.76301,0.0139 1.54605,-0.16638 2.31445,-0.16406 14.59124,0.037 29.18261,0.073 43.77539,0.12304 l 14.34961,0.0527 c 2.35609,0.009 4.78331,-0.0968 7.13477,0.0273 0.34452,0.0185 0.78593,0.15839 1.1289,0.22852 l -0.002,-0.17188 c 6.81083,-0.21349 13.62672,-0.10395 20.44141,-0.0801 0.48324,0.002 1.02066,0.25746 1.5039,0.25977 0.10636,7.7e-4 0.56254,-0.2407 0.67969,-0.24609 1.49058,-0.0601 3.03832,-0.20168 4.52734,-0.18164 0.41696,0.005 0.88702,0.22816 1.3086,0.25976 1.26167,0.0948 2.66298,0.15558 3.92773,0.13477 0.34759,-0.006 0.74302,-0.2149 1.08985,-0.21875 l 10.81835,-0.10742 c 0.67438,-0.007 1.37368,0.22265 2.04883,0.22265 8.16885,-0.003 16.33507,0.0182 24.50391,-0.0566 l -0.002,-0.17187 c 1.92681,0.27977 4.02416,0.21083 5.93554,0.20312 3.57075,-0.0139 7.14878,-0.0757 10.71875,-0.041 l 18.76172,0.18554 0.2168,0.002 16.21875,1.21875 c 0.17418,0.0139 0.65347,0.25951 0.82226,0.26953 0.36301,0.0223 0.89059,-0.10451 1.25977,-0.14844 0.0439,-0.005 0.10101,0.007 0.14648,0.01 2.1056,0.14206 4.21111,0.27339 6.31641,0.4121 l 0,-510.82031 c -1.2174,-0.458152 -2.43898,-0.906637 -3.66602,-1.347656 -0.0509,-0.0185 -0.18936,-0.13057 -0.24023,-0.166016 -0.49711,-0.349913 -1.30504,-0.790637 -1.58789,-1.363281 -0.42158,-0.856269 -0.65836,-2.468851 -1.61328,-2.933594 -2.56495,-0.142583 -2.69652,2.88316 -4.5,4.080078 l -1.24219,-0.103515 c -0.69519,-0.415417 -1.89018,-1.496108 -2.11523,-2.326172 -0.13718,-0.608867 0.75288,-1.824238 1.2207,-2.197266 0.14336,-0.114837 1.58513,-1.28239 1.64062,-1.308594 0.87939,-0.421583 2.05209,-0.27786 3.03321,-0.916015 l 0.40234,-0.917969 c -0.21041,-0.681315 -1.36721,-1.696672 -1.91211,-2.082031 l -0.62109,-0.08594 -1.97656,1.486328 c -1.4474,1.088255 -1.65174,1.08779 -3.40821,1.251953 -0.26127,0.02466 -0.40941,0.09643 -0.66992,0.0625 -1.07592,-0.1395 -2.22131,-0.651131 -3.29492,-0.876953 l -1.54102,-0.201172 c -0.40462,-0.05318 -1.96168,-0.175576 -2.35937,-0.07227 -0.57109,0.148748 -1.34111,0.623027 -1.89063,0.878906 -0.99808,0.660506 -1.92552,1.388834 -2.84961,1.886719 -0.53798,0.29056 -1.25491,0.378992 -1.81445,0.642578 -0.70906,0.334492 -0.92114,0.661698 -1.81055,0.974609 -0.15569,0.05395 -0.23232,0.139443 -0.39648,0.138672 -0.79615,-0.0054 -1.67887,-0.428304 -2.47656,-0.441406 -0.65203,-0.01002 -2.92877,1.597009 -3.4043,1.978516 -0.10405,-0.01927 -1.0271,-0.179951 -1.06641,-0.199219 -1.01426,-0.503279 -3.99614,-4.565707 -4.17187,-5.886719 0.48402,-1.519086 2.1136,-2.338144 2.2793,-3.900391 0.0462,-0.431602 -0.0224,-0.93379 -0.0332,-1.376953 -0.3661,-0.837001 -1.66996,-1.691771 -2.58789,-1.546875 -1.80964,1.016569 -3.20108,4.142148 -4.33789,4.710938 -0.30906,0.154915 -0.51779,0.155254 -0.84766,0.253906 l -1.69726,0.507813 c -1.20772,0.174953 -2.51901,0.01667 -3.73828,0.148437 -0.92024,0.100194 -2.88731,0.543778 -3.75977,0.974609 -0.50328,0.248942 -0.84896,0.732959 -1.25976,1.115235 l -1.39258,1.294922 c -0.40617,0.509445 -0.77149,1.448691 -1.08594,2.039062 l -0.74805,-0.568359 c -0.0347,-0.411563 -0.22882,-1.935072 -0.5664,-2.214844 l -1.4043,-0.515625 c -0.34684,-1.86591 -1.87253,-2.423937 -2.03516,-4.490234 -0.15183,-1.949917 2.19853,-3.514854 -0.004,-5.402344 -0.97341,-0.554917 -2.50232,0.06224 -3.50195,0.328125 -1.40887,-0.448558 -2.60907,-3.61892 -1.95704,-4.832031 l -0.25976,-0.69336 -0.54492,-0.322265 -1.45899,0.240234 -1.46679,-0.896484 c -0.86705,-0.258961 -3.19551,1.508263 -3.78125,1.941406 l -0.48243,-0.115234 c -0.22735,-1.184596 0.75732,-3.692982 1.1211,-4.894532 l 1.73242,-1.541015 -0.39453,-0.802735 -1.57031,-0.896484 -2.74219,0.3125 c -0.24586,-0.686718 -1.00026,-3.253462 -0.5625,-3.935547 l 0.38476,-0.197266 c 0.9187,0.144896 3.34633,0.488876 3.99219,-0.52539 -0.18035,-0.575726 -0.3073,-1.178338 -0.44141,-1.765625 l -0.23632,-0.177735 c -0.11869,-0.817732 -0.8401,-2.087401 -1.60157,-2.480468 -0.61118,-0.315224 -1.4301,-0.379361 -2.06054,-0.669922 -1.02352,-0.47168 -1.98976,-1.462202 -3.1836,-1.554688 -0.92409,-0.07168 -1.34916,0.486425 -2.66015,-0.164062 -0.93874,-1.570724 -2.66313,-4.420577 -4.19532,-5.640625 -0.0979,-0.07938 -0.52546,-0.178788 -0.61718,-0.25586 -0.39307,-0.325244 -0.88694,-0.874512 -1.2168,-1.267578 -0.58113,-0.694418 -1.30407,-2.014701 -2.08789,-2.490234 -0.91253,-0.554147 -1.95513,-0.932076 -2.87305,-1.478516 -1.116,-0.665129 -1.19583,-2.590609 -2.52148,-3.361328 -0.679,0.02852 -1.75607,-0.575544 -2.22852,-1.015625 l -0.38281,-1.419922 0.97266,-1.595703 -0.26563,-0.453125 c -0.658,-0.145879 -1.75053,0.219662 -2.23223,0.673615 -0.86243,-0.146436 -2.45076,-2.611993 -2.90625,-3.232422 -0.0293,-0.04008 -4.34457,-2.234073 -4.69141,-2.412109 -0.30983,-0.616575 -0.19182,-1.952766 -0.0469,-2.583984 -0.38613,-1.900592 -5.83426,-4.288359 -7.62695,-2.921875 -0.77072,0.588058 -1.04737,1.397489 -1.3125,2.271484 l 0.48437,2.042969 -0.44336,-0.01172 c -0.73604,-1.144517 -1.84449,-3.801073 -1.89844,-5.166016 l 0.25196,-1.990234 0.12695,-0.996094 -0.5957,-1.320312 c -0.34605,-0.286707 -1.20422,-0.723599 -1.6836,-0.621094 l -0.69336,0.535156 -1.38672,1.072266 c -0.23045,0.10713 -0.39286,0.05399 -0.64257,0.08789 -1.395,0.190367 -2.09497,0.151026 -3.29883,0.998046 l -0.41406,-0.113281 c -1.30714,-1.721015 0.37419,-3.650989 0.60156,-5.324219 0.0647,-0.470909 -0.0248,-0.742032 -0.041,-1.216796 -0.0516,-1.470532 0.18129,-3.5684409 -1.50195,-4.2890629 l -0.50586,-0.07031 -1.01367,-0.134765 c -0.87014,0.153374 -1.9792,0.679783 -2.83008,0.972656 -0.0193,0.0069 -0.132,-0.01527 -0.1582,-0.01758 -0.78844,-0.08016 -1.6116,-0.211 -2.40235,-0.244141 -1.15146,-0.04856 -2.2404,0.126877 -3.39648,-0.107422 -0.41542,-0.570333 -1.17473,-1.378398 -1.41211,-2.027343 l -0.86523,-0.121094 c -3.26476,0.949525 -2.12076,2.636852 -3.75391,3.675781 -0.88479,0.312912 -3.67378,0.171033 -4.61328,0.109375 l -0.74219,0.6757809 -0.52148,0.02344 -0.2168,0.408203 c -0.4185,0.127169 -1.05175,0.246687 -1.49414,0.175781 -0.64201,-0.591141 -2.25426,-1.5577839 -3.19531,-1.4414059 -0.23044,-0.436226 -0.76577,-0.351544 -1.0625,-0.607422 -0.76611,-0.661277 -1.14249,-1.528847 -2.10743,-2.039062 -0.32832,0.07553 -1.02095,0.436642 -1.125,0.802734 l -0.78711,2.7734379 -0.5371,-0.171875 c -1.99308,-0.6335319 -1.85925,-0.06519 -3.6504,-0.1191409 -0.5102,-0.01542 -0.84515,-0.529972 -1.51953,-0.236328 l -0.74414,0.6386719 c -0.67592,-0.8346879 -2.11536,-1.2907679 -3.125,-1.4726559 -0.0285,-0.0046 -1.14523,0.260493 -1.2539,0.285156 l -0.81836,1.1542969 -0.625,-0.08203 -1.33008,-1.1621089 c 1.4027,-0.08632 2.42807,-0.607274 2.02344,-2.197266 l -0.78516,-0.771484 c -1.7133,-0.401545 -2.44487,0.365803 -3.44141,0.378906 l -1.63476,-0.283203 -0.81641,-0.142578 c -1.55068,0.588829 -3.1586,1.613306 -4.8457,1.214844 -0.34683,-0.31137 -0.71065,-0.610338 -1.08984,-0.88086 l -1.08008,0.150391 -0.10352,1.789062 c -0.3869,0.0185 -1.01929,0.27159 -1.25976,0.59375 l 0.25195,1.2460939 -0.48633,0.05859 -1.64062,-1.3046879 c -0.0624,-0.47245 -0.0488,-1.421912 0.21093,-1.853515 -0.13873,-1.04047 -1.86927,-2.129036 -2.9082,-2.052735 -0.50559,-0.0077 -2.21798,3.212292 -2.5332,3.740235 -0.55955,0.05472 -3.23902,-2.842372 -3.75,-3.341797 l -0.76563,0.158203 -0.67187,0.675781 -0.2793,1.923828 -0.21289,0.203126 -0.69141,-0.04883 -1.12695,-0.916015 -2.70898,0.259765 -2.67969,-3.285156 -1.07422,-0.08789 -0.49219,0.404297 c -0.37071,1.202321 -0.78526,2.560701 -1.42187,3.658203 l -0.35156,0.232422 -0.96876,-0.08594 -0.4082,-0.351563 c -0.0462,-0.527179 -0.3243,-1.673435 -0.75976,-2.044922 l -0.62696,0.0918 -2.33008,2.298829 c -0.29056,0.287478 -1.3342,0.184396 -1.66406,0.04102 -0.79,-0.961087 -1.0225,-2.914551 -1.29687,-4.09375 -0.11253,-0.487094 -0.39391,-1.249924 -0.69141,-1.644531 -0.27668,-0.368403 -0.58095,-0.877829 -0.90234,-1.199219 -0.34065,-0.341428 -0.86438,-0.334956 -1.0586,-0.94921901 -0.3422,-0.17187 -0.77791,-0.457017 -1.13476,-0.570312 -0.0756,-0.02405 -0.16838,-0.03876 -0.27344,-0.04492 l 0.002,-0.002 z"
     id="rect6"
     inkscape:connector-curvature="0" />
  <path
     style="fill:#00853f"
     d="m 300,14.772996 c -0.15612,0.06855 -0.28043,0.0959 -0.42578,0.210938 -0.53641,0.424666 -0.78379,1.354644 -1.51367,1.666015 -1.26321,0.538732 -2.78753,0.605091 -3.9043,1.492188 l -0.89453,1.845703 0.0742,0.470703 c 0.22659,1.442014 0.59866,1.547258 1.47265,2.71875 0.0116,0.01464 0.0563,0.373215 0.0625,0.414063 l -0.42382,0.578125 -0.27539,-0.03906 -0.041,0.345703 c -1.57303,0.777655 -3.18849,1.589571 -4.94727,1.855468 -0.37688,0.05703 -2.9991,-0.214068 -3.39062,-0.357421 -0.48324,-0.177266 -1.08712,-0.621539 -1.54492,-0.882813 l -0.0312,-0.277344 c -0.18266,-0.06859 -2.11485,-0.814917 -2.17188,-0.820312 -0.995,-0.09249 -2.86132,0.187265 -3.91797,0.255859 l -0.875,0.640625 -0.36133,1.132813 c 0.44009,0.852414 1.10323,2.25685 0.68165,3.24414 -0.92024,0.999622 -2.40132,1.210794 -3.66993,1.400391 l -5.67968,0.847656 -1.01758,0.984375 -0.72852,0.05859 c -1.1476,-0.711373 -2.37149,-1.618308 -3.57226,-2.214844 -1.23393,-0.612721 -3.14111,-0.346617 -4.46289,-0.470703 -0.61965,-0.05858 -3.35294,-0.531432 -3.93946,-0.773437 -2.61659,-1.081318 -2.08673,-1.695624 -5.17578,-1.546875 -0.0678,0.0031 -1.18555,0.178304 -1.21484,0.191406 -1.32409,0.57958 -2.0605,1.41772 -3.80078,1.914063 -0.0632,-0.668984 -0.29882,-2.199865 -0.72657,-2.761719 -1.88363,-0.931028 -5.27478,-1.121669 -7.20312,-0.363281 -2.14183,0.842395 -4.66571,2.460664 -6.38672,3.984375 -0.158,-0.01079 -1.97313,-0.113851 -2.00781,-0.126954 -0.9765,-0.372257 -2.36092,-1.35544 -3.30274,-1.896484 -0.74066,0.02466 -2.36193,0.03794 -2.94921,0.414063 -0.81701,0.522547 -1.46388,1.464403 -2.27545,2.003906 l -1.60156,0.738281 -0.80078,0.369141 -0.93359,-0.148438 c -0.83237,-0.399232 -0.90442,-1.625 -1.42774,-2.253906 -1.09365,-1.313304 -3.56672,-3.301528 -5.16211,-4.013672 -1.04586,-1.329489 1.11345,-3.355507 -1.39062,-4.730468 -0.3946,-0.215802 -0.98726,-0.647332 -1.48438,-0.566407 -1.88594,0.307517 -3.71681,0.525946 -5.49023,1.28125 -1.08441,0.462432 -1.45735,1.505429 -2.13867,2.388672 -0.43622,0.565708 -1.37206,1.219234 -1.95703,1.597656 l -1.04688,0.675782 -2.12891,0.208984 c -3.21774,0.313682 -3.14691,-1.330107 -5.4082,-1.732422 -0.63893,-0.114066 -2.59712,0.0964 -3.1582,0.347656 -0.54876,0.24586 -1.00568,1.110127 -1.70703,1.050782 l -0.28321,0.615234 -0.27734,-0.0039 c -0.41542,0.285166 -0.68768,0.920223 -0.78711,1.371094 l -0.24219,1.097656 c -0.0193,0.43931 0.21813,0.966275 0.23047,1.414062 0.0316,1.204634 -0.15536,1.813506 -1.20508,2.373047 l -1.18164,0.63086 c -1.44355,2.368418 -1.43726,5.812346 -1.50586,8.488281 l -0.69726,0.542969 -1.31641,0.08984 -0.34961,0.457031 -0.70312,0.910157 c -0.10096,0.233528 -0.0733,0.390141 -0.1211,0.640625 l -0.24414,1.283203 c 0.0239,1.06205 0.77613,3.390319 0.37305,4.339844 -0.36532,0.859352 -0.92989,1.740607 -1.37305,2.568359 l -0.34961,0.271484 -1.38476,0.01953 c -0.76764,0.423125 -1.8801,3.768731 -2.22461,4.625 l 0.17578,0.644531 0.35742,1.289062 c 0.49635,0.939506 2.07118,2.171233 1.90625,3.353516 l -0.57226,0.751953 -1.14649,1.503906 c -0.48941,0.893263 -0.64612,2.052461 -1.13476,2.947266 -0.40617,0.744513 -1.18756,1.573467 -1.70703,2.261719 -0.35144,0.465514 -0.87862,0.783282 -1.4004,1.046875 -0.71291,0.0894 -1.82303,-0.463667 -2.30859,-0.949219 -0.716,-0.07553 -3.66042,1.156188 -3.99414,1.751953 -0.2975,0.531796 -2.24821,3.891567 -2.28906,4.417969 -0.0755,0.974181 0.14933,2.245956 0.21484,3.236328 0.0177,0.28825 -0.30596,1.148829 -0.42773,1.40625 1.20926,1.809647 -0.59369,3.426671 -0.2461,4.263672 0.33835,0.315994 1.96149,1.63348 1.91602,2.082031 l -0.24805,0.582031 -1.21875,0.748047 0.0937,0.707032 -0.8164,1.02539 -1.26758,0.103516 c -0.40925,0.237382 -1.24115,0.877728 -1.39453,1.363281 -0.77611,-0.259733 -1.82032,1.778278 -2.47852,2.275391 l -4.47656,5.320312 0.46875,3.800783 0.0547,1.75586 0.11132,2.83008 -0.73046,7.31054 -0.59376,3.31641 -0.3125,5.36523 -0.26562,4.59375 -0.75977,3.80079 -0.0586,0.19726 -0.43359,1.1543 0.76172,0.1582 -0.32618,1.32813 -0.88867,2 -0.84765,2.73632 -0.76758,1.42579 -1.48242,1.99023 -0.40235,0.75391 -2.5664,4.80664 -0.83008,1.19922 -2.34766,6.16015 -0.92969,1.91211 -1.84961,2.7461 -5.09765,7.57421 -2.83399,5.21875 -2.25976,3.14454 -4.2793,5.97851 -5.01758,6.9707 -1.1875,2.75586 -1.05664,2.45508 -2.11914,2.72656 -6.46094,11.06641 -0.67773,1.16211 -2.486328,3.35547 -1.458984,2.92187 -4.697266,6.43164 -1.417969,1.66797 -3.767578,4.42774 -7.535156,10.74609 -0.769531,1.09766 -1.142579,1.33203 -0.300781,0.24023 -1.876953,1.46485 -2.142578,2.55078 -1.576172,1.73242 -1.296875,1.46289 -1.716797,1.9375 -1.949219,2.05469 -1.238281,1.30664 -1.650391,2.04297 -1.501953,1.49414 -0.710937,1.53906 -0.820313,1.84766 -0.99414,1.94726 -1.298828,1.66992 -2.789063,2.19922 -2.330078,1.58594 -1.949219,0.79297 -0.269531,0.10351 -1.765625,0.69922 -1.771484,0.97266 -2.396485,1.44727 -4.722656,2.75976 -2.425781,1.0332 -2.675781,1.58204 -1.351563,0.70312 -0.863281,0.12695 -0.861328,0.0566 -1.25,0.81055 -2.423828,1.0332 -2.041016,0.62696 -2.494141,1.0332 -2.048828,1.31641 -0.617187,-0.0762 -0.970704,0.50391 -2.046874,0.9707 -2.076172,0.83399 -1.207032,0.15625 -1.105468,0.1914 -1.835938,0.90625 -1.695312,0.70118 -0.863282,0.0898 -0.9296871,0.0918 -0.9257813,-0.39063 -0.7167968,-0.35351 -0.5214844,0.23437 -0.2792969,0.41016 -0.453125,0.33789 -0.8261719,0.12695 -0.6542968,-0.0781 -0.6542969,0.0273 -0.4570313,0.61328 -0.3867187,0.54492 -0.3828125,0.41016 -0.2089844,0.27148 -0.28125,0.30664 -0.3808594,0.26954 -0.5839844,-0.041 -0.4472656,-0.14453 -0.37499998,-0.24414 -0.48046874,-0.041 L 0.109375,291.44097 0,291.81792 l 0.58203125,0.2832 1.36914065,0.63867 0.9609375,0.1836 0.1699218,0.24219 0.2949219,1.07226 0.2910157,1.27735 0.4023437,0.93554 0.5136719,0.24805 0.6894531,-0.0605 0.7949219,-0.26562 0.3730468,0.45312 0.5996094,1.38477 0.3046875,0.41797 0.4824219,0.041 0.4804688,0.0762 -0.00781,0.54883 0.3222657,1.55664 0.2324219,0.62305 0.4785156,0.28125 0.515625,0.14453 0.546875,0.14453 0.304688,0.41797 0.30664,0.21094 0.548829,0.0742 0.65625,-0.0937 0.582031,0.17969 0.0625,0.41406 0.08594,1.27539 0.191407,1.17383 0.263672,0.83007 0.482421,0.006 0.63086,-0.88867 0.255859,-1.09765 0.251953,-0.78711 0.384766,-0.47852 0.347656,-0.20117 0.242188,-0.23828 -0.333985,-0.65821 -0.65039,-0.2832 -0.544922,-0.52344 -0.13086,-0.48632 0.25,-0.71875 0.458985,-0.7168 0.484375,-0.33789 0.322265,-0.68555 0.04297,-0.75781 0.185547,-0.96094 0.25,-0.7539 1.490234,-0.56641 3.492188,-1.19141 4.210937,-0.94336 2.03125,0.0625 4.316407,1.60742 1.84375,0.84961 1.230468,0.67188 0.919922,0.73633 0.927735,0.11523 1.408203,0.0879 1.568359,1.125 0.919922,0.59766 1.367188,0.67187 2.228515,0.6875 3.605469,2.87305 4.990234,4.78906 1.996094,2.30078 1.017578,3.32032 0.123047,0.26172 1.279297,2.68554 0.724609,2.07617 0.710938,0.87305 1.027343,0.32617 1.367188,0.49805 1.550781,2.26367 1.203125,2.29102 0.751953,2.76562 0.414063,2.07422 0.765625,1.76758 0.845703,1.00977 1.091797,0.42968 0.443359,0.35156 0.595703,1.45508 0.294922,1.00196 1.060547,0.36132 2.259766,0.75586 3.927734,1.67774 1.626953,2.54492 0.939453,0.72461 0.728516,0.55859 3.408203,3.86328 3.322266,4.83204 0.503906,1.1621 0.337891,1.50977 -1.492188,4.79492 c 0.0493,0.23429 0.08805,0.5326 0.183594,0.7168 0.83315,1.61465 2.62835,1.3653 3.93164,2.19922 0.711371,0.45395 2.117434,1.91579 2.564454,2.64258 0.13256,0.21734 0.173198,0.52726 0.298828,0.75 0.25203,0.44779 0.613293,0.77134 0.814453,1.27539 0.48941,1.22236 0.896107,2.92868 1.154297,4.22656 0.4185,2.10099 0.354452,6.17986 1.794922,7.79297 0.2975,0.33372 0.774115,0.60824 1.109375,0.92578 0.54952,0.52023 0.996487,1.10454 1.710937,1.4082 1.284795,0.5449 2.695615,0.65217 4.060545,0.92578 1.16842,1.24625 0.62812,1.97138 1.19922,3.07813 0.10173,0.20038 0.34544,0.38 0.46875,0.57422 0.26667,0.4185 1.52905,3.03207 1.71094,3.52148 0.0933,0.25125 0.11347,0.54557 0.21289,0.79297 0.0933,0.23198 0.31309,0.47001 0.38477,0.70508 0.0886,0.28979 0.0627,0.66468 0.1289,0.9668 0.0586,0.27052 0.19574,0.52245 0.25586,0.79296 0.36223,1.61852 0.28936,4.13492 0.85352,5.54688 0.30598,0.76455 0.79032,1.38591 1.19726,2.07031 0.38921,0.65434 0.94736,2.60855 0.89649,3.34766 -0.0177,0.26436 -0.16741,0.56808 -0.21289,0.83398 -0.22428,1.32486 -0.39034,1.98192 -0.76953,3.25977 -0.14413,0.48711 -0.58106,3.77707 -0.59571,4.35742 -0.0331,1.26629 0.62769,1.96111 0.68164,3.25977 0.0563,1.33797 -0.10044,2.71898 0.043,4.05078 0.067,0.61657 0.24488,1.22337 0.29883,1.84765 0.11946,1.34567 0.18405,2.70126 0.30274,4.05078 0.057,0.64432 0.12695,1.38262 0.12695,2.02539 0,0.61273 -0.12318,1.18237 -0.043,1.80665 l 0.85352,-0.0469 0.55664,-0.48437 c 0.0262,-0.58729 0.21809,-1.14915 0.25586,-1.71485 0.0709,-1.03431 -0.44836,-1.82105 -0.47071,-2.81836 -0.0347,-1.51369 0.19905,-3.19385 0.12891,-4.88867 -0.0509,-1.24317 -0.38477,-2.44178 -0.38477,-3.69726 0,-0.91717 0.21157,-1.95727 0.0859,-2.86133 -0.15184,-1.09287 -0.51383,-1.32829 -0.043,-2.59766 0.58806,-1.5846 2.08911,-2.8328 3.29297,-3.91797 0.36763,-0.33218 0.80185,-0.54717 1.10938,-0.96875 0.79692,-1.09519 0.1152,-2.26869 0.34179,-3.43555 0.2397,-1.23854 1.96908,-1.73362 2.82227,-2.42187 l 0,0.13281 c 0.38767,-0.10096 0.71324,-0.47155 0.85351,-0.70508 l 0,-0.79296 c -0.79461,-0.96956 -1.62113,-0.68347 -1.88086,-2.33204 l 0.17188,-0.79296 0.59961,-0.43946 c 0.8316,-0.008 1.65538,0.34791 2.47851,0.3086 0.37919,-0.0177 2.85345,-0.81441 3.24805,-1.01172 1.6424,-0.82081 0.61337,-2.63935 2.6211,-3.25977 0.30519,-0.0948 0.83927,-0.0585 1.14062,0.0879 -0.64664,0.0678 -1.42556,0.5001 -2.00977,0.79297 -1.1607,1.64471 0.90499,3.85449 -4.18945,4.18359 l -0.55469,0.52735 c 0.10251,0.80154 0.67569,1.39944 0.55469,2.24414 -0.59268,0.91716 -0.90009,1.66034 -1.8789,2.24609 -0.21503,0.12871 -0.5343,0.20554 -0.72852,0.35352 -0.31908,0.24278 -0.625,0.75992 -0.93945,1.05664 l 0.55468,0.30664 c 0.79615,-0.005 1.90665,-0.34014 2.65039,-0.13281 l 1.46875,0.89648 c 2.63432,1.69635 2.82309,1.76984 5.97071,1.30664 0.76687,-0.11253 1.73265,-0.0847 2.26367,-0.79297 l 0.21289,0.3086 c 1.1923,-1.11986 1.39548,-2.43549 2.09375,-3.83203 0.13488,-0.26975 0.56317,-1.04151 0.72656,-1.27735 0.1449,-0.20887 0.40327,-0.3653 0.55664,-0.57031 0.13488,-0.17958 0.20461,-0.44147 0.3418,-0.61719 0.3052,-0.38999 0.72404,-0.68229 1.02539,-1.10156 0.12639,-0.17573 0.24182,-0.46767 0.38672,-0.61719 1.52448,-1.5715 3.51772,-0.60181 5.04297,-1.36328 0.21657,-0.10867 1.40726,-1.33061 1.53906,-1.54101 0.11946,-0.19037 0.15182,-0.49853 0.25586,-0.70508 0.11792,-0.23353 0.31058,-0.42664 0.42773,-0.66016 0.45472,-0.90637 0.80669,-1.84505 1.41016,-2.68359 0.2844,-0.39615 0.63948,-0.71489 0.89844,-1.14649 0.25434,-0.42081 0.42983,-0.92802 0.72656,-1.32031 0.41696,-0.55184 1.06411,-1.12298 1.41016,-1.71875 0.37997,-0.64971 0.40232,-1.85173 0.17187,-2.55078 l 0.38281,-0.61719 c 0.86629,-0.25048 2.41935,1.18373 3.37891,1.45117 0.69133,0.19268 1.18218,0.11992 1.87891,0.0899 0.60809,-0.0254 1.23752,0.0835 1.7539,-0.35352 l 0.16992,-0.61719 c -0.41388,-0.63893 -1.00861,-1.06322 -1.41015,-1.71679 -1.9029,-3.09444 0.67851,-4.5401 2.9082,-5.98828 -0.66359,0.53411 -0.96165,1.35492 -0.92773,2.20117 0.0354,0.8686 0.39436,1.95236 1.43945,1.98242 0.27746,0.007 0.61482,-0.16385 0.89844,-0.17773 0.50559,-0.0239 2.12283,0.27188 2.56445,0.52929 1.45204,0.8478 1.23643,2.39506 4.10352,1.80469 1.33025,-0.27438 3.68014,-1.6611 4.91406,-1.10156 -0.55877,1.24933 -2.07752,2.42426 -3.37695,2.68554 -0.40694,0.0809 -0.83927,0.0706 -1.25391,0.14844 -0.77535,0.14566 -1.72322,0.37078 -2.50781,0.20508 -1.42429,-0.30058 -0.8991,-1.3994 -3.54883,-1.49805 l -0.72656,0.35352 c -0.53642,1.61003 -1.47501,2.74291 -3.16211,3.08203 -0.64047,0.12794 -1.33327,0.0245 -1.9668,0.13086 -1.08209,0.18112 -2.00433,0.75351 -2.86523,1.41016 -0.30828,1.37111 -2.29969,3.86162 -3.33399,4.79882 -0.18575,0.16879 -0.44717,0.27879 -0.64062,0.44141 -0.48247,0.40463 -1.1111,1.12058 -1.49414,1.62695 -0.59268,0.78459 -1.07565,1.63205 -1.83789,2.29102 -0.17649,0.15261 -1.68645,1.07076 -1.92383,1.18945 -1.11369,0.55569 -3.63838,0.80579 -4.01758,2.28711 l 0.21094,0.79297 c 0.77766,0.99037 2.92145,1.15419 3.97656,0.66016 0.837,-0.3923 1.16447,-0.93616 2.22266,-0.92383 l -0.17188,0.61719 c -2.14953,1.58074 -2.24722,1.05387 -4.27344,2.02343 -0.36918,0.70289 -0.53099,1.55751 -0.68359,2.33594 0.37688,0.6736 0.84005,1.48094 0.68359,2.28711 -1.50213,0.437 -3.74316,-2.01725 -5.30078,-1.36523 -2.00927,1.34722 -1.46521,3.88212 -2.60742,5.54687 l -0.76953,0.35156 -0.72656,-0.0859 -0.084,-0.70508 c 0.28131,-0.40154 0.5327,-0.86754 0.72461,-1.32227 l -0.084,-0.70312 -0.59961,-0.48438 c -0.89018,-0.0871 -1.94614,0.18825 -2.7793,0.0449 -1.37573,-0.23662 -2.21137,-2.13843 -4.47266,-2.34961 -1.63931,-0.15337 -3.47688,0.92266 -4.75781,1.86524 -2.0794,1.52912 -4.12878,3.33651 -4.0625,6.20898 0.0139,0.58729 0.19035,1.21586 0.25586,1.80469 0.1711,1.55454 0.33815,3.2248 0.64258,4.75391 0.28054,1.40348 0.98089,3.01142 0.55469,4.44726 -0.22814,0.76918 -0.73385,1.2425 -1.15235,1.89453 l 0.041,0.83594 c 0.28748,0.39769 0.65508,0.78865 1.02734,1.10156 0.37226,1.16687 0.16933,2.7331 0.55469,3.69727 0.51175,1.28017 1.98315,0.61267 2.7793,2.02539 0.78921,1.39963 0.0883,2.39343 0.38281,3.74219 0.18574,0.84548 1.13482,1.48143 1.93945,1.4375 0.69441,-0.0378 1.31515,-0.29898 1.73828,-0.91016 0.54335,-3.85822 2.70427,-2.09148 4.01758,-4.26953 0.53642,-0.89095 -0.40622,-3.17966 1.11133,-4.49219 0.0732,-0.064 0.1316,-0.08 0.21484,-0.13086 1.32024,-0.81619 3.01194,-0.94307 4.48633,-1.32226 1.22313,-0.31599 5.75951,-2.07014 6.71289,-2.77149 0.77304,-0.56879 0.56156,-0.85857 1.92188,-1.05664 l 0.25781,0.83399 0.64063,0.35351 c 0.43082,-0.0385 1.11111,-0.32566 1.41015,-0.66015 0.42467,-0.47553 3.33572,-7.12533 3.46289,-7.83594 0.2212,-1.24008 -0.0871,-1.05102 0.42774,-2.55469 0.0455,-0.13334 0.16742,-0.71008 0.21289,-0.79101 0.27052,-0.49403 1.62228,-1.74034 1.79492,-2.37696 0.2474,-0.91946 -0.39459,-1.82664 -0.25586,-2.77539 0.0701,-0.48324 2.12919,-3.33695 2.52148,-3.61133 0.0516,-0.0362 0.51211,-0.18715 0.59766,-0.21875 -0.0208,0.89018 -0.41191,1.48059 -0.59766,2.28907 -0.56185,2.44242 0.71011,5.65383 -1.83789,7.2207 l -0.10156,0.24805 c -0.56725,1.42197 0.0355,4.13105 -0.625,6.0039 -0.29827,0.84317 -0.76666,1.04355 -0.81445,2.20117 l 0.51367,0.48438 c 0.45472,0.0185 1.15003,0.25551 1.49609,0.57227 1.56148,2.16879 -1.34603,4.23042 -0.34179,6.42773 0.45627,0.30675 1.20671,1.25789 1.32617,1.80664 0.0701,0.32062 -0.003,0.72523 0.043,1.05664 0.0786,0.55645 0.30903,1.15607 0.42773,1.71484 l -0.30078,0.75 -0.63867,0.043 c -0.50405,-0.54181 -1.13677,-0.97047 -1.62696,-1.49609 -0.87091,-0.93489 -1.82342,-3.01172 -2.05078,-4.26953 -0.16339,-0.90251 0.20503,-1.88807 -0.25586,-2.73047 l -0.81054,-0.21875 c -0.99036,1.32333 -2.12108,1.43505 -3.63477,1.62695 l -0.0859,0.96875 c 0.35684,0.26744 0.66202,0.967 0.6836,1.41016 l -0.3418,0.61719 c -1.07592,-0.46551 -1.3003,-1.6857 -2.17969,-1.98243 l -0.93945,0.13282 c -0.29366,0.38998 -0.70768,0.71579 -0.98437,1.09961 -0.31522,0.43931 -0.4177,0.80794 -0.85547,1.18945 -0.75453,0.65666 -1.65596,1.10356 -2.34961,1.84961 -0.34451,0.36917 -0.52348,0.79058 -0.8125,1.1875 -0.42466,0.58421 -1.01594,1.09213 -1.4961,1.63086 -1.18305,1.32563 -2.02126,2.79036 -2.77734,4.40039 -0.8948,1.90522 0.71559,2.30642 0.51367,4.00586 -0.14105,1.1977 -2.05485,2.34259 -1.75195,4.3164 0.10713,0.70213 3.12163,5.81912 3.67578,6.56055 0.18651,0.24971 1.32362,1.45219 1.53711,1.58399 0.47785,0.29595 1.19302,0.29158 1.71094,0.13281 0.45164,-0.13796 0.83981,-0.55287 1.23828,-0.79102 1.27322,-0.7607 2.62879,-1.59658 3.50586,-2.86133 0.49712,-0.71677 0.90726,-2.03136 1.49609,-2.55468 0.21657,0.3661 0.7121,0.82463 1.11133,0.96875 l 0.72656,-0.30664 c 0.679,-0.63198 0.52481,-2.33953 0.76758,-3.25977 0.45473,-0.51253 1.77684,-1.66263 1.96875,-2.1582 0.0532,-0.93565 -0.2129,-1.82809 -0.55664,-2.6836 l 0.30078,-0.75 c 1.29558,0.0979 2.68562,0.31331 3.20508,1.7168 -0.59962,1.80116 -1.08297,1.2737 -1.75195,2.37891 0.0578,1.16764 -0.4851,2.07302 -1.45313,2.64257 l 0.041,0.65821 c 0.72062,0.17649 1.46063,0.4878 2.0957,0.88086 l 0.16992,0.74804 c -0.41773,1.04586 -3.35416,2.5047 -4.40234,2.90625 -0.53025,0.20269 -1.135,0.24488 -1.66602,0.44141 -0.28055,0.10405 -0.5335,0.28936 -0.8125,0.39649 -0.25126,0.0948 -0.57281,0.10621 -0.8125,0.21874 -1.16764,0.54645 -3.13246,3.7051 -3.16406,5.02149 -0.0123,0.47399 0.19247,1.24201 0.4707,1.62891 0.48247,0.17187 1.41733,1.72809 2.28516,3.4121 5.20311,0.0247 11.16237,0.10759 16.35547,0.11915 0.43006,0 0.90469,-0.20267 1.33398,-0.19727 0.28902,0.003 0.64145,0.22384 0.92969,0.22461 l 14.38281,0.01 0.51953,0.26757 c 3.21544,-0.53411 7.08249,-0.27343 10.34571,-0.27343 6.17192,0 12.34488,-0.0236 18.51757,-0.0352 0.19884,-7.7e-4 0.45545,0.1988 0.6543,0.19726 l 11.95117,-0.10351 0.002,0.13672 c 1.74414,0.0802 3.48752,0.0866 5.23242,0.082 0.75916,-0.002 1.74059,0.0789 2.50976,-0.006 0.1842,-0.02 0.85495,-0.259 0.98829,-0.25977 0.8,-0.005 1.63554,0.23746 2.43554,0.23438 3.6401,-0.0154 7.28372,-0.0577 10.92383,-0.043 3.25321,0.0131 6.51242,0.30224 9.76563,0.32227 12.08256,0.0755 24.18343,-0.45262 36.26367,-0.30079 1.57381,0.02 3.15547,0.16951 4.72851,0.16797 0.80463,0 1.62234,-0.16149 2.42774,-0.17382 0.86089,-0.0139 1.74416,0.12775 2.60351,0.0976 0.26898,-0.009 0.58182,-0.2076 0.85157,-0.2207 1.37265,-0.0632 2.80127,0.0516 4.18164,0.0762 -0.0635,-1.78057 0.31498,-4.32186 0.83398,-6.41211 l 0,-444.564454 z M 9.4316406,304.54644 l -1.3789062,0.18945 0.2285156,0.86328 0.6425781,0.76758 0.7949219,-0.12891 0.421875,-0.68359 -0.5097656,-0.625 -0.1992188,-0.38281 z m 103.7421894,110.28125 -0.50586,0.32031 -0.0859,0.93359 0.18164,0.48047 0.41211,0.0957 0.32227,-1.04101 -0.32422,-0.78906 z m 22.21875,14.51953 c -0.74914,-0.0786 -1.02071,0.23579 -1.6211,0.48242 -0.25203,0.10405 -0.55585,0.12513 -0.8125,0.2207 -0.73527,0.27283 -2.70604,1.4628 -3.11914,2.11328 -0.15415,0.24201 -0.24294,0.71401 -0.35546,0.9961 -0.27746,0.69364 -0.40076,1.42119 -0.28516,2.17187 l 0.59766,0.17383 c 1.53296,-0.42775 3.0825,-0.97494 4.06054,-2.28516 0.28439,-0.38151 0.43559,-0.89429 0.72461,-1.27734 0.13565,-0.17957 0.40114,-0.34083 0.51367,-0.52734 0.27283,-0.45318 0.28051,-0.93133 0.6836,-1.36524 l -0.38672,-0.70312 z m -6.51563,20.75 -0.29101,2.73047 0.0117,2.38086 0.52148,0.54101 0.64063,-0.63281 0.38085,-1.52539 -0.77929,-3.29688 -0.48438,-0.19726 z m -4.67968,4.25976 -0.30079,0.45508 0.53516,1.09375 1.54102,1.76563 1.31445,0.80273 0.54687,-0.0449 0.26758,-0.28125 -0.56054,-0.78125 -1.18164,-0.77344 -1.50977,-2.21289 -0.65234,-0.0234 z m 171.01757,41.41211 c -0.11785,-0.003 -0.225,0.002 -0.31836,0.0195 -1.79423,0.32602 -7.47098,5.10716 -8.83593,6.17383 -0.0331,0.0254 -0.23213,0.3613 -0.26758,0.41602 -1.12371,0.59731 -3.20554,1.0313 -4.46875,0.86328 -0.87708,-0.11637 -1.95557,-0.54587 -2.82031,-0.78711 -0.11021,-0.0308 -0.23349,-0.0518 -0.33985,-0.0957 -2.10868,-0.87553 -4.36006,-1.93781 -6.64062,-2.27539 l -1.66602,0.004 c -0.32448,7.7e-4 -0.51681,-0.0756 -0.83203,0.002 -1.60309,0.38998 -3.77309,1.34374 -5.37695,1.91407 l -0.33008,0.006 c -0.63507,0.01 -0.68501,0.015 -1.38867,0.16992 -1.19463,0.26204 -3.25252,0.89075 -4.35157,0.95703 -1.28093,0.0779 -4.48009,-0.34025 -5.99609,-0.45508 l -0.64844,27.30078 c -8.46712,-0.067 -16.9376,-0.0649 -25.40625,-0.0957 -0.55955,-0.002 -1.27815,-0.23976 -1.85156,-0.34766 -0.0856,0.0301 -0.88175,0.32813 -0.91797,0.32813 -2.50329,0.02 -5.05448,0.13181 -7.55469,0.0586 -0.70598,-0.02 -1.45765,-0.3287 -2.1621,-0.34179 -0.10713,-0.002 -0.67489,0.29137 -0.78125,0.28906 -3.91679,-0.0809 -7.84883,-0.24219 -11.76563,-0.24219 -2.91485,0 -5.83437,0.15821 -8.75,0.1875 -7.46904,0.0778 -14.96574,-0.14317 -22.43555,-0.21484 -0.68671,-0.007 -1.54817,0.44487 -2.21484,0.38476 -0.18266,-0.0162 -1.03504,-0.35665 -1.16992,-0.35742 l -35.39453,-0.31082 c -2.37998,-0.02 -4.85706,0.38367 -7.20313,-0.0371 -0.44393,0.82852 -3.69096,0.56148 -3.88672,2.48829 0.51792,0.69749 0.74807,1.70329 0.49219,2.54492 -0.76918,0.31753 -1.65458,1.33966 -2.04687,2.04101 l -1.08985,0.26172 -0.10547,-0.24023 -0.61718,-0.0215 c -0.60271,0.25819 -1.01115,0.80629 -0.99805,1.4668 l 0.78516,1.74609 -0.28126,1.9375 c -0.15954,1.09056 -0.47864,2.14349 -1.48828,2.55274 0.12948,0.64971 0.0921,1.27657 0.16993,1.87695 0.43468,3.36419 0.46013,8.02194 -0.42774,11.31445 -0.33603,1.24317 -1.21441,2.55049 -1.1543,3.87305 0.0424,0.89634 0.41519,1.784 0.55469,2.64258 0.10867,0.67206 0.24526,3.4404 0.21289,4.13867 -0.0123,0.28208 -0.38012,2.26931 -0.46875,2.50977 -0.0817,0.21966 -0.31906,0.44708 -0.42773,0.66211 -0.65511,1.3056 -1.16754,2.82238 -2.05078,4.0039 -0.29287,0.39229 -0.74331,0.69385 -1.02539,1.10156 -0.22274,0.32062 -0.38766,0.73239 -0.59961,1.07227 -1.35492,2.17113 -2.04694,3.45905 -1.9375,6.15039 0.0301,0.74529 0.0495,1.55358 0.35547,2.24414 l 0.38476,0.35156 c 0.40386,-0.62813 0.95488,-1.17096 1.2832,-1.84765 0.2081,-0.42852 0.3046,-1.00455 0.64063,-1.36524 0.0462,-0.0509 0.51365,-0.34217 0.59766,-0.39843 0.80078,0.63199 1.09668,3.04114 1.2832,4.05078 -0.26898,0.40848 -0.51423,0.89737 -0.8125,1.27734 -0.95415,1.21696 -2.56445,2.88795 -2.56445,4.57813 0,0.86783 0.56509,1.66913 0.64062,2.55468 -0.3291,0.71446 -0.46028,1.4975 -0.8125,2.20117 l 0.25586,0.83594 0.64258,0.35156 c 1.2478,-0.35452 2.38062,-2.0599 2.90625,-3.21289 0.10405,-0.22813 0.17047,-0.53959 0.29687,-0.75 0.39384,-0.65434 1.12885,-1.09165 1.75391,-1.45312 1.2239,-0.70983 2.50177,-1.44426 3.97461,-0.88086 0.30829,0.11715 0.55449,0.36491 0.88281,0.48437 0.46166,0.16725 0.88357,0.18143 1.33985,0.3086 0.94104,0.26127 1.61552,1.14319 2.35156,1.75976 l -0.0859,0.92579 -0.72461,0.39648 c -0.94567,-0.95877 -2.03185,-0.26318 -3.07617,-0.48437 -0.9634,-0.20425 -1.36565,-0.78826 -2.48242,-0.5293 -1.46129,0.33911 -3.47536,2.77906 -4.35938,3.96289 -0.28516,0.38227 -0.67682,0.70599 -0.89648,1.14453 -0.56108,1.12139 -1.37818,3.33342 -1.4961,4.57812 -0.2104,2.22892 0.92484,4.10551 1.02735,6.25196 0.027,0.58035 -0.20386,1.15339 -0.25781,1.7168 -0.0455,0.48631 -8.7e-4,0.94293 -0.0117,1.39843 -0.0647,3.00426 0.79673,5.20888 4.44531,5.34375 1.20694,-0.49788 1.27196,-1.51222 2.13672,-1.97851 0.75761,-0.004 1.85151,-0.0529 2.47656,-0.5293 0.36224,-0.27746 0.63714,-0.78593 0.98242,-1.09961 1.3873,-1.26398 3.75637,-2.99077 5.33789,-4.00195 1.52679,-0.97496 3.03199,-1.42703 4.31446,-2.86133 0.33912,-2.06938 -0.47706,-3.82719 -0.59961,-5.67383 -0.0802,-1.21235 -0.36974,-6.98185 0.1289,-7.74023 1.39809,-2.12102 4.2572,-1.43566 5.21289,-2.24414 0.98421,-1.52371 0.48859,-2.57772 0.76758,-4.17774 0.18035,-1.03122 0.97662,-2.74237 1.32422,-3.78515 0.94644,0.5842 0.91904,2.20225 0.85352,3.16796 -0.0832,1.23083 0.11695,2.6235 -0.12891,3.82813 -0.84933,4.15725 -5.04594,3.03809 -6.40625,6.02539 -0.61118,1.34336 0.0798,6.62045 1.58203,7.3457 0.59653,0.28902 4.2959,-0.641 4.91016,-1.01172 0.56725,-0.56262 1.19895,-2.38086 1.66601,-3.21093 0.47322,-0.27283 1.01147,-0.48385 1.53711,-0.61719 l 0.21289,0.83789 c -0.23969,0.4555 -0.34199,1.1597 -0.29883,1.66992 l 0.42774,0.57227 c 1.56302,0.84779 2.56955,0.65309 4.14258,2.02343 0.81928,0.71368 3.54221,4.25145 3.88672,4.44336 l 0.59765,-0.0449 c 0.20886,-1.80348 0.35329,-3.02273 1.53711,-4.48633 0.39461,-1.71022 -1.10498,-5.46413 -0.55469,-7.21289 l 0.46875,0.17578 c 0.0794,0.95106 0.95926,4.17679 1.66602,4.70704 0.90945,0.0886 1.82297,-0.0102 2.73242,-0.0449 l 0.25586,0.57227 c -0.99885,0.77303 -2.98809,0.46912 -3.20312,2.06836 0.16724,0.73218 0.25573,1.69828 -0.29688,2.28711 -0.46783,2.10329 1.96879,2.1123 3.20117,2.72656 0.42081,0.21041 0.8059,0.53379 1.23828,0.74805 0.68979,0.86475 0.33792,2.42319 1.19727,3.03515 0.56648,0.0339 1.30568,-0.0309 1.83594,-0.26367 l 0.64062,0.17578 0.12695,0.92383 c 0.40233,0.62043 1.50377,1.71955 2.17969,1.97852 0.54027,0.20578 1.14673,0.16444 1.70703,0.2207 2.15802,0.21658 4.28697,1.83119 6.36328,1.62695 l 0.59961,-0.39648 c 0.0755,-0.42775 1.119,-2.23861 1.45118,-2.46289 l -0.084,-1.67188 0.51172,-0.52929 c 2.00695,-0.0547 2.49094,-1.61997 4.05859,-2.10938 1.28941,-0.0432 4.22239,2.43936 7.00391,1.80274 3.03663,-0.69519 5.91298,-5.18317 9.52148,-1.97852 0.89713,0.26667 1.72496,-0.23946 2.60743,-0.35352 1.60155,1.25396 2.53676,1.60228 4.48437,0.96876 0.62197,-0.20193 0.90146,-0.22762 1.32227,-0.79102 0.44471,-0.59576 0.49706,-1.41936 1.11133,-1.89258 0.8763,-0.35838 1.39353,-0.16098 2.26367,-0.30664 0.58035,-0.0979 1.14267,-0.3539 1.75,-0.43945 1.4582,-0.20424 4.51205,0.25711 5.67969,-0.3086 0.32832,-0.15954 2.04225,-2.05882 2.36132,-2.44726 0.9056,-1.10136 3.58884,-1.61352 0.97071,-4.54688 l 0.084,-0.70312 c 0.39615,-0.41156 0.82421,-0.51742 1.28125,-0.79102 1.77034,-1.05821 1.96986,-3.21448 2.05078,-5.10351 l 0.38477,-0.61524 c 1.96302,1.30868 0.76099,4.4586 1.36523,5.63086 0.91407,0.95415 3.01699,1.17828 3.7168,2.41992 0.59963,1.06205 0.5099,2.99065 1.57812,3.65039 0.8948,0.5526 3.13837,0.84212 3.63086,1.49415 0.87091,1.15377 0.12287,2.54423 1.31055,3.58007 0.83854,0.0886 1.26273,0.33214 1.85156,0.51172 2.47477,0.75761 1.22005,2.43414 3.28711,2.81641 0.56879,0.10482 1.32209,0.12082 1.88086,-0.0449 0.9133,-0.27361 1.61776,-1.2002 2.43164,-1.67188 2.4162,-1.40039 6.22957,-1.26415 6.44922,2.33203 0.41003,0.30135 0.93559,0.24285 1.39648,0.20508 2.4717,-0.20347 2.82018,-2.82317 4.58204,-4.0332 l 0.8125,-0.043 0.64062,0.39648 c 1.09828,0.0108 1.70429,-1.08669 2.9043,-1.05664 2.31678,0.0578 3.26969,2.06793 5.16797,1.97852 1.85435,-1.23392 4.33845,-1.86905 6.0664,-0.17578 0.87631,0.12485 1.82182,-0.26124 2.64649,0.0879 0.99346,1.39037 1.14505,4.21909 0.043,5.58789 l 0.12695,0.70312 c 0.48786,0.56725 1.18951,0.83037 1.70898,1.36524 0.67438,0.16109 2.01336,-0.0111 2.64844,-0.3086 1.4659,-0.68671 4.92148,-3.80254 5.89258,-5.10351 0.13642,-0.18189 0.19691,-0.48941 0.3418,-0.65821 0.60039,-0.70289 1.60837,-1.23878 2.30664,-1.84765 1.48211,-1.29249 4.97236,-3.98078 5.63672,-5.71875 0.15877,-0.41619 0.22505,-1.31815 0.17187,-1.75977 -0.15183,-1.25473 -0.95157,-2.6929 -1.23828,-4.0039 -0.25742,-1.17997 0.0761,-2.73461 -0.30078,-3.78125 -0.29442,-0.81619 -1.72108,-1.78857 -2.0918,-3.125 -0.35375,-1.27631 0.95774,-2.53651 1.23828,-3.69336 0.28208,-1.15994 -0.0954,-2.31179 0.55664,-3.43164 0.23969,-0.41157 1.85847,-2.49891 2.22071,-2.9043 0.4894,-0.54798 1.15386,-0.89838 1.58007,-1.49414 l 0.81055,-0.2207 c 0.71754,0.39615 0.60668,1.36284 1.32422,1.75976 0.73372,0.0832 1.11456,-0.22054 1.75195,-0.35156 0.31599,-0.0655 0.66525,0.0275 0.98047,-0.0449 0.81535,-0.18903 1.68146,-0.94985 2.58008,-1.80274 l 0,-84.80273 -2.18555,-0.73047 c -0.44846,-0.15039 -1.77465,-0.61912 -2.59961,-0.64258 z M 300,585.84722 c -0.94915,0.33712 -1.65767,0.7385 -2.32227,0.89257 -1.51677,0.35068 -4.74459,-1.53849 -5.97851,0.043 0.0516,0.28362 -0.80422,6.21126 -0.94141,6.86329 -0.14875,0.71369 -0.63867,1.64513 -0.63867,2.375 0,2.39462 4.0232,2.94722 2.34766,8.49023 l 0.25781,0.79101 c 0.54412,0.63662 1.44902,0.46624 2.0918,0.96876 2.73682,5.11987 -7.08856,4.51756 -6.10743,9.0625 -0.31446,0.78535 -1.07756,0.95101 -1.58007,1.53906 -0.78998,0.92332 -0.86252,2.34671 -2.00782,3.07812 -0.82698,0.0355 -2.16209,-0.0402 -2.90429,0.30664 -1.69327,0.79307 -3.02423,4.10432 -5.25391,4.04883 -0.9318,-0.0231 -2.11388,-0.40965 -3.04492,-0.60156 -0.79923,-0.16416 -2.78115,-0.52539 -3.40235,-0.98242 -1.62236,-1.19385 -0.79561,-4.93435 -2.73242,-5.67578 -0.76918,-0.29365 -1.85964,0.0261 -2.65039,0.13476 -0.71446,-0.27746 -1.12071,-0.97268 -1.83593,-1.23242 -1.03045,-0.37457 -2.05053,0.26266 -3.14649,0.16016 -0.88632,-0.084 -1.79332,-0.62142 -2.70508,-0.64454 -2.4162,-0.0601 -5.31927,4.89794 -7.47265,5.71875 -0.48325,0.0239 -1.33151,0.17732 -1.92188,0.0879 -1.99154,-0.30058 -3.22153,-3.40718 -5.2539,-4.04688 -1.9792,-0.62274 -3.55097,0.30512 -5.42383,0.39453 -0.22813,0.0116 -4.4917,-0.40898 -4.57032,-0.4375 -0.9395,-0.3422 -1.33495,-1.35946 -2.09179,-1.9375 -0.87631,-0.66744 -1.94649,-0.57788 -2.86133,-1.27539 -2.27593,-1.73643 -3.11644,-4.3261 -6.49219,-4.75 -4.21428,-0.52871 -3.49121,1.55299 -6.44922,2.77148 -2.4455,1.00734 -5.11657,-0.10789 -7.47265,0.65821 -1.18152,0.38459 -2.15052,1.53132 -3.33203,1.9375 -1.66012,0.57033 -3.50322,0.47591 -5.16797,1.14258 -1.42429,0.57111 -1.79884,1.57652 -3.54297,1.71679 -0.54644,-0.57187 -0.76934,-1.55515 -0.8125,-2.33203 -0.50328,-0.98345 -2.38309,-1.91663 -3.375,-1.27539 -0.26667,0.62352 -0.77373,0.53613 -1.19531,0.83594 -0.19346,0.13719 -0.27838,0.43199 -0.46875,0.57226 -1.97073,1.44972 -7.18877,1.0582 -9.31055,0 -0.40771,-0.20347 -0.76798,-0.54303 -1.19727,-0.74804 l -0.72461,0.30859 c -0.29365,0.40925 -0.55912,0.85824 -0.76953,1.31836 -0.71214,0.53256 -1.74477,0.23492 -2.5625,0.61719 -0.78922,1.04047 -0.3182,2.16821 -1.70703,3.38672 -1.21774,1.06744 -3.49611,2.43442 -5.12695,1.98047 -0.95723,-0.2659 -1.801,-1.28054 -2.75977,-1.62891 -1.05512,-0.38304 -2.16245,-0.13733 -3.21679,-0.43945 -2.75994,-0.78922 -8.11639,-5.58594 -11.66016,-5.58594 -4.75071,0 -5.59984,4.85822 -3.50195,6.20312 l 0.1289,0.70313 -0.93945,-0.0879 c -0.98343,-0.85626 -2.43032,-2.07228 -2.82031,-3.38867 -0.94413,-3.18306 1.288,-5.60741 -2.73438,-8.09375 -0.79539,-0.49172 -1.55459,-0.92149 -2.51953,-0.83594 -0.81773,0.34682 -0.88778,1.09361 -1.45117,1.62695 -0.7607,0.72062 -2.11529,0.64156 -2.77735,1.45313 -1.14065,1.40039 0.0997,3.74181 -4.01367,6.20117 -0.40155,0.2397 -0.87817,0.59181 -1.28125,0.79297 -1.81813,0.90791 -4.04777,0.2699 -3.9707,3.29883 -0.81465,0.52871 -2.34169,0.37848 -3.24805,0.17578 l -0.041,-0.83594 c 0.25896,-0.33064 0.45625,-0.98431 0.42773,-1.4082 -0.90482,0.0655 -1.48891,0.59434 -2.30664,0.83789 -0.93411,0.27823 -1.94979,0.16618 -2.90625,0.34961 -0.33757,0.30752 -0.66083,0.769 -0.85351,1.1875 -0.77536,0.73681 -2.07476,-0.22806 -3.71485,1.32031 -1.48595,1.4027 -4.18339,4.57953 -4.82617,6.51172 -0.28902,0.86629 -0.21578,1.83098 -0.25586,2.72656 -0.0408,0.91407 -0.27726,1.90346 -0.21484,2.81445 0.1395,2.00464 1.89158,5.84454 3.24804,7.30274 1.26706,1.36263 3.39052,2.14207 4.61133,3.5625 1.85128,2.1557 1.60123,4.87425 2.60547,6.82031 0.24278,0.47168 0.66084,0.75768 0.85352,1.32031 l 0.64843,0.28125 c 0.20655,-0.5765 1.32245,-1.75422 1.73633,-2.09179 1.40733,-1.14991 1.65643,-1.32915 3.29883,-2.08985 2.03623,-0.9426 2.67869,-0.63088 4.97852,-0.54687 0.12486,0.005 0.28411,0.053 0.4082,0.0762 l 6.74219,1.23633 c 2.01157,0.36841 4.28383,-0.38132 6.1875,-0.84375 0.11484,-0.0277 0.48565,-0.32506 0.60742,-0.35743 0.0609,-0.017 1.41547,-0.20271 1.46094,-0.20117 1.74953,0.0786 3.58173,0.44241 5.33203,0.65821 l 0.3125,0.30468 c 2.04703,0.0748 3.8643,-0.88 5.74023,-1.07422 3.36649,-0.34682 7.08401,-0.36959 10.48828,-0.54687 2.3399,-0.12254 3.10221,-1.74298 5.06446,-2.74414 1.53604,-0.78459 3.16435,-1.40836 4.70117,-2.19141 1.09597,-0.558 2.17125,-1.24352 3.24023,-1.85547 0.0771,-0.0432 0.26189,-0.38523 0.33203,-0.41992 0.63276,-0.31214 1.36327,-0.60224 1.96289,-0.96679 0.31291,-0.19114 0.58717,-0.60969 0.90625,-0.7754 1.64471,-0.85319 3.35482,-1.66013 4.96485,-2.57421 1.22159,-0.69287 2.35072,-1.58827 3.57617,-2.27344 1.45819,-0.81542 3.86812,-0.88404 5.48047,-0.54492 0.91715,0.19268 1.87482,0.54815 2.77734,0.8125 0.0455,0.0131 2.18502,-0.0696 2.31836,-0.0742 l 0.50391,-0.35352 c 2.46861,0.26975 4.8238,-0.91577 7.16601,-1.4414 1.79732,-0.40385 3.69477,-0.64063 5.51367,-0.95508 0.0663,-0.0116 0.75961,0.21577 0.89063,0.22656 0.22968,0.0185 1.86012,-0.0263 1.94336,0.002 l 9.78125,3.23243 c 0.85781,0.28285 1.75959,0.65025 2.63281,0.86914 1.17688,0.29595 2.25249,-0.1473 3.40625,-0.26368 1.79192,-0.18035 3.64959,-0.29341 5.44922,-0.38281 3.81043,-0.19037 8.22901,0.48606 11.95313,1.0957 0.69442,0.11406 1.3927,0.39148 2.08789,0.48243 0.76764,0.10096 1.58321,0.018 2.35546,0.0996 0.24509,0.0254 0.51232,0.20502 0.75586,0.23046 0.84394,0.0863 1.79417,-0.13851 2.625,-0.01 2.14337,0.33064 8.22053,1.5105 10.35157,1.25 1.77727,-0.21734 3.57313,-0.67827 5.26562,-1.23242 l 3.39258,-1.11328 c 0.25511,-0.57573 1.84584,-1.15669 2.39844,-1.41797 0.0771,-0.0362 0.28401,-0.33082 0.37109,-0.38477 0.42621,-0.25973 0.94207,-0.46789 1.39063,-0.6914 l 8.42382,-4.18946 c 0.0725,-0.0354 0.28318,-0.36365 0.36719,-0.41992 0.46166,-0.3052 1.15185,-0.70529 1.6582,-0.92187 1.1137,-0.47707 2.37435,-0.92076 3.52735,-1.29688 0.30597,-0.10019 0.7282,-0.0664 1.01953,-0.1875 0.35761,-0.14798 0.69892,-0.49229 1.04883,-0.67187 0.73262,-0.37625 1.62148,-0.62725 2.45117,-0.88868 l 0,-41.02929 z"
     id="rect4"
     inkscape:connector-curvature="0" />
  <path
     style="fill:#e31b23"
     d="m 600,93.183152 0,511.123048 c 3.13912,0.20784 6.27844,0.42016 9.41797,0.61524 l 0.10937,0.91796 0.5625,0.5625 0.58204,-0.6289 0.54882,-0.13672 c 0.36455,0.22736 0.68594,1.14702 0.77149,1.5293 0.87246,0.53719 3.23689,0.49028 4.16406,0.32226 0.38844,-0.0701 0.90927,-0.71949 1.35937,-0.63086 l 0.67774,-0.76367 0.4082,-0.10547 c 0.58498,0.15723 1.2874,0.42571 1.88086,0.50586 0.55029,0.0748 1.19492,-0.10039 1.73828,-0.0117 0.68054,0.11175 1.67373,0.43532 2.32422,0.67578 0.59268,0.21966 1.37177,0.9207 2.05078,0.74805 l 1.66407,-1.28711 1.19335,-0.0781 c 0.31291,0.14875 0.57717,0.71294 0.6211,1.03125 1.06128,0.22967 2.50756,1.22629 3.11719,2.12109 l 0.4414,-0.002 0.74414,-1.31641 c 1.04586,-0.47708 2.78311,-0.41212 3.91993,-0.4707 l 1.0957,0.71679 0.88086,-1.0039 0.71679,-0.10938 c 0.70829,0.47091 2.47492,1.34935 3.38282,1.1875 0.54182,0.41542 1.28076,1.16821 1.98828,1.30078 0.91253,-0.17495 2.08551,-1.22178 2.51172,-2.01562 0.21349,-0.15645 0.73696,-0.0624 0.95507,0.0293 0.34065,0.60964 0.73873,1.57398 1.17188,2.09961 0.0331,0.0393 1.15079,0.77685 1.26562,0.85546 -0.0986,1.89674 0.92402,3.7281 0.85157,5.58399 -0.0462,1.15531 -0.95151,2.18096 -1.34766,3.2168 -0.3345,0.87476 -0.54377,1.89596 -0.80273,2.80078 -0.40001,0.27746 -1.58563,1.27835 -1.5918,1.83789 0.18805,0.64817 0.54485,1.51172 0.625,2.16992 0.074,0.60656 -0.15197,1.34483 -0.125,1.9668 0.057,1.31793 0.77504,3.21486 2.09375,3.75976 0.11021,0.0447 1.08739,0.4614 1.13672,0.4668 1.14066,0.13256 2.20054,-0.49099 3.26953,-0.60352 1.16378,-0.12254 2.45745,0.26978 3.57422,0.54493 1.4844,0.36764 3.5754,1.34162 5.14844,1.90039 1.10521,-0.58343 3.5604,-2.71615 4.23632,-3.86915 l -0.13476,0.002 0.58398,-4.9707 0.37305,-0.68946 c 0.96032,-1.76649 2.22859,-2.0705 4.17773,-2.51367 0.89095,-0.20192 1.68579,0.62034 2.56055,0.19336 l 0.82031,0.57031 c 0.68362,0.4763 0.67898,0.9087 1.16993,1.48828 0.60656,0.71754 3.24689,1.4773 4.13476,1.70313 l 0.54883,0.75586 0.0137,2.14062 c 0.0886,0.11329 1.07495,1.39392 1.09961,1.40625 0.76687,0.36301 4.16551,2.10291 4.95703,2.11524 0.837,0.0116 1.81454,-0.4702 2.70703,-0.51953 l 0.72266,0.65429 0.69531,0.14844 c 0.0979,0.58651 1.11605,1.5608 1.54688,1.89453 0.0509,0.9079 0.28991,2.70126 0.83789,3.48047 0.19885,0.0647 2.55023,0.85192 2.5957,0.84961 l 2.76172,-0.15039 c 0.10405,-0.005 0.47675,-0.24224 0.57617,-0.2461 2.49328,-0.0825 9.38565,-0.52174 11.76563,0.11719 0.56648,0.15183 1.2309,0.51879 1.77734,0.75 l 2.29883,3.16407 c 0.57033,0.1657 2.77613,0.95201 3.14453,1.4707 0.42544,0.60039 0.67215,1.4008 1.06445,2.03125 0.42312,0.68132 1.27152,1.39683 1.81641,1.99414 2.06708,0.60964 4.06587,-1.16266 5.57031,-2.23242 l 2.93359,-2.08399 c 1.35416,0.19191 1.89436,-0.45637 2.45313,-0.49414 0.0378,-0.002 2.15395,0.21974 2.21484,0.23438 1.0713,0.24972 2.58015,0.68835 3.58594,1.12304 0.75376,0.32601 1.4453,0.99962 2.1875,1.3711 0.93334,0.46783 1.98721,0.75795 2.9375,1.19726 1.08517,0.50097 2.83407,1.8197 3.55469,2.7461 0.66513,0.85551 1.23724,1.96849 1.81836,2.89258 0.0516,0.0817 0.0894,0.44856 0.13867,0.51562 0.30444,0.4131 0.77515,0.8247 1.12891,1.20312 -0.14104,0.73681 1.55301,2.47367 2.25976,2.71876 2.0424,0.38151 4.68893,-1.39751 6.36524,-2.30079 0.52332,-0.28132 1.17709,-0.37961 1.70117,-0.66015 0.28671,-0.15414 0.561,-0.50014 0.85156,-0.625 l 5.55664,-2.38867 c 1.08363,-0.46628 1.66448,-0.81262 2.78125,-1.19336 1.04895,-0.35839 5.36822,-0.57838 6.64453,-0.53907 l 0.50391,-0.34179 c 1.11446,0.24741 2.17703,-0.26966 2.86914,-1.13672 l 0.98828,0.0684 c 0.92101,-1.00579 1.83806,-2.14016 2.82227,-3.07813 0.39769,-0.37765 1.0231,-0.59573 1.42773,-0.96875 0.85241,-0.78074 1.56253,-1.86732 2.45117,-2.59179 0.27438,-0.22505 0.48273,-0.27545 0.79102,-0.45118 l 1.58984,-0.90234 c 0.81543,-0.33218 2.44152,-0.0358 3.07813,0.57227 0.29519,-0.33681 3.22582,-0.74639 3.80078,-0.85352 l 1.81054,1.85937 0.13868,0.5879 c 0.53333,0.43314 2.12687,1.46939 2.83593,1.54492 2.75224,0.2921 5.60344,-0.60412 8.16993,-1.47656 0.58112,-0.19732 4.0797,-2.29983 4.19531,-2.83008 1.70714,-0.59576 4.41998,-1.51535 5.85351,0.0801 l 0.65821,0.73437 0.68359,0.10352 c 0.86937,0.85627 3.50963,3.09766 4.81445,3.26953 1.69404,0.22274 3.48417,0.57683 5.1836,0.68164 1.32949,0.0817 2.77115,-0.24158 4.08984,-0.11133 1.11446,0.10867 2.41617,0.8343 3.51367,0.85742 l 3.78321,-0.44336 c 0.85319,-0.10019 2.4301,-0.16177 3.375,-0.39453 1.50907,-0.37303 2.38501,-1.51895 3.57422,-2.41992 0.7029,-0.53256 1.55801,-1.10885 2.3164,-1.55664 0.94798,-0.56031 2.40063,-0.82047 3.47656,-0.83203 0.41464,-0.005 0.92125,0.28499 1.33204,0.27343 1.68865,-0.0439 3.45351,-0.29965 5.14062,-0.44531 l 0.48438,-0.041 0,-0.17383 c 2.52873,-0.76224 7.56722,-2.16208 10.05664,-2.2168 l 5.1875,0.10156 4.36132,0.084 c 0.34528,0.006 0.54679,-0.0618 0.88282,0.0176 0.52717,0.12409 0.78933,0.30146 1.29492,0.49414 l 2.59375,0.98828 c 0.48324,0.23276 0.72075,0.42757 1.18164,0.70117 2.89482,1.71716 3.19135,1.91877 6.61719,2.00586 1.02043,-1.75646 0.70925,-2.42685 -0.0156,-4.30664 l 0.24024,-0.69141 c 0.40232,-0.3422 0.94773,-0.71661 1.29687,-1.10351 0.56262,-0.62351 0.45292,-1.18083 1.60352,-1.55078 l 0.16992,-0.51954 -0.98828,-1.72461 c 0.49712,-0.94258 0.29937,-2.4069 -0.20313,-3.3125 l -0.54492,-0.27539 -1.02344,0.51563 c -0.2474,0.4763 -0.33047,1.39902 -0.10156,1.89844 l -0.30664,0.65625 -0.47852,-0.0371 c -1.02505,-0.88787 -0.7431,-2.58264 -0.23828,-3.65625 l -0.78125,-1.55469 -1.19336,-0.72461 -0.10351,-0.34375 0.78515,-0.72461 -0.16992,-0.34375 c -0.41695,-0.32371 -2.16819,-0.79668 -2.72851,-0.55469 l -0.44336,0.48243 -0.16992,1.89843 c -0.33835,-0.11869 -2.04546,-0.58907 -2.11329,-0.93359 -0.10404,-0.70597 -0.15725,-2.2339 -0.71679,-2.65625 l -0.44336,-0.20703 -1.5,0.58594 -0.27344,-0.89844 c 0.17572,-0.43161 0.84208,-2.46149 1.26367,-2.58789 l 3.17188,0.0371 0.27148,-0.20703 0.82031,-2.96875 -0.20507,-0.6543 -2.21485,-2.03711 -0.34179,-1.14063 0.17187,-0.55273 c 0.6528,-0.22428 2.15023,-1.00666 2.42383,-1.72266 l -1.39844,-4.14062 -1.43164,-1.17383 -2.25195,0.17188 -0.44336,-0.38086 0.10351,-1.68946 c 0.81156,-0.66128 1.31152,-2.42641 1.29688,-3.41601 l 0.27344,-0.24024 0.81836,0.48243 0.54492,-0.34571 0.34179,-3.82812 0.44532,-0.44922 c 0.96879,-0.0331 2.00304,-0.13624 2.96875,-0.10156 0.26667,0.009 1.70965,0.29157 1.84375,0.27539 0.74529,-0.0925 1.82332,-0.58803 2.55859,-0.82618 l -0.13672,-0.34375 -1.74023,-1.17382 -0.0684,-0.58789 0.54687,-0.68946 c -0.66051,-1.14143 -1.26312,-2.00374 -2.25195,-2.93554 l 0.0371,-0.42774 1.36328,-0.7793 c -0.12101,-0.70597 -0.089,-2.21154 0.375,-2.82812 -0.24894,-0.76918 -0.68384,-1.73649 -0.81641,-2.51953 -0.0663,-0.38536 0.12322,-1.74486 0.47852,-2.05469 l -0.2207,-0.0898 c -0.6474,0.33218 -1.61615,0.5082 -2.33985,0.45117 l -0.44336,-0.24024 c 0.0748,-0.72679 -0.13834,-2.1542 -0.71484,-2.6914 l 1.87695,-1.58594 c 0.16108,-0.25049 0.20073,-0.76618 0.0684,-1.03516 -1.81042,-1.45665 -1.49175,-2.67375 -0.14453,-4.32617 l 1.48047,-1.81445 -0.0684,-0.37891 -1.57031,-0.96679 -0.40821,-1.00196 0.27149,-1.3457 c 0.30135,-0.2289 0.91501,-0.44596 1.29883,-0.37891 1.20694,1.15609 3.95962,0.0639 5.29297,-0.23828 0.0301,-0.006 0.36314,-0.24379 0.41015,-0.27539 l 0.27344,-0.6914 -0.10938,-0.30079 c -0.2844,-0.7738 -0.84677,-1.87448 -0.98242,-2.66601 -0.1341,-0.78459 0.21655,-1.78922 0.0801,-2.57227 -0.0647,-0.37149 -0.94441,-1.90244 -1.47851,-2.05273 l -1.4668,-0.41406 c -0.30058,0.0432 -0.70162,0.37992 -0.82031,0.65429 0.0162,1.15531 0.16954,2.43674 -0.17188,3.55274 l -0.47854,0.41389 -0.6836,-0.20703 -0.99023,-1.10547 -0.41016,0 -0.95508,0.65625 -0.68359,-0.10547 -0.24023,-0.34375 c 0.24045,-0.36994 0.90579,-1.59786 0.7871,-2.07031 -0.32987,-0.36686 -0.97837,-1.2716 -1.02539,-1.79492 l 0.3418,-0.79297 c 0.29673,-0.34528 1.07539,-0.54923 1.50391,-0.55078 l 0.20508,-0.69141 c -0.42775,-0.5842 -1.15965,-1.16838 -1.8086,-1.48437 -0.22505,-0.30597 -0.14494,-1.84697 -0.14648,-2.25391 -0.51638,-0.51022 -3.04031,-3.04828 -2.93164,-3.86524 0.47707,-0.67052 0.92703,-1.69845 0.99023,-2.52929 -0.0917,-0.48478 -0.39668,-0.98815 -0.66797,-1.37891 -1.06359,-1.53913 -1.42333,-1.58827 -3.35937,-1.64453 l -2.83594,-0.082 -1.30273,-2.15039 c -0.5133,-0.18497 -0.70154,-0.23559 -0.8711,-0.32422 -0.17187,-0.0909 -0.32199,-0.22148 -0.75976,-0.56445 l -1.02735,-3.30664 -1.95898,-1.38086 -0.16211,-0.7168 2.19336,-3.51758 -0.10352,-1.65234 c -0.74914,-1.20386 -4.05407,-0.5471 -5.18164,-1.39258 -0.63044,-1.00964 -0.91096,-3.9767 -0.36914,-5.01562 0.46243,-0.8871 1.37144,-1.8835 1.96875,-2.70508 l -0.0606,-0.72266 -1.70507,-1.57422 c -0.14181,-0.95337 -0.67773,-2.76849 -1.73438,-3.20703 l -1.4082,-0.33984 -0.70703,-0.16797 c -0.51099,-0.51329 -1.20835,-1.40422 -1.79102,-1.79883 -0.0254,-0.0177 -1.37586,-0.38916 -1.49609,-0.42383 l -0.30664,-0.48437 0.30664,-1.51953 c -0.34451,-0.83855 -1.50734,-3.34205 -1.47266,-4.10352 0.0516,-1.08979 0.48277,-0.42284 0.13672,-2.09375 l -0.10352,-0.49219 -0.61523,-0.10547 -1.46875,0.93164 -3.62695,-0.34375 -0.0703,-0.65429 c 0.20115,-0.76918 0.98925,-1.74164 1.57422,-2.24414 0.0979,-0.54798 -0.17146,-1.4213 -0.48437,-1.86524 -0.93951,-0.56879 -3.66135,0.5787 -4.63477,0.87696 -0.0516,0.0146 -4.03576,-0.19589 -4.30859,-0.20899 l -0.58789,-0.49414 -0.25782,-1.25195 c -0.23661,-1.14066 -0.51486,-1.18049 -1.51757,-1.72461 -0.18189,-0.0987 -0.26605,-0.21306 -0.46875,-0.25391 -0.45935,-0.0925 -0.73099,-0.0492 -1.19727,-0.0801 l -2.39258,-0.1582 -1.375,1.41211 c 0.084,0.45164 0.37317,2.48374 0.125,2.89453 -0.60656,1.00116 -2.44302,2.81128 -2.84765,3.7793 l -0.22266,1.73242 -0.10937,0.86719 c -0.40925,0.45704 -2.29774,0.90192 -2.875,1.01367 l -0.6543,0.68945 c -0.0778,1.47285 -0.74663,2.9702 -2.24414,3.44727 l -2.87305,-0.0996 -0.92383,-0.79297 c -0.48478,-1.22929 0.13849,-2.8346 -0.44726,-3.79492 -0.53796,-0.88093 -1.24964,-1.74082 -1.85157,-2.58399 -0.0331,-0.0447 -0.14634,-0.11729 -0.19335,-0.15429 -0.51638,-0.40771 -1.28993,-0.8858 -1.72461,-1.36133 -0.13565,-0.14721 -0.15017,-0.27232 -0.24805,-0.44727 -0.65357,-1.16533 -0.87843,-1.51318 -2.10156,-2.07812 -0.34528,-0.15954 -0.8113,-0.32426 -1.20899,-0.29883 l -0.44531,-0.41406 c 0.93642,-1.33257 1.12087,-2.88215 1.70508,-4.34961 0.67129,-1.68556 2.0994,-2.91409 1.9414,-4.88867 l -0.0703,-0.87305 -0.78711,-1.48242 c -1.39038,-1.55993 -7.26539,-6.72951 -9.07812,-7.7168 -1.1977,-0.65126 -2.81296,-0.91703 -3.9043,-1.82031 -1.97998,-1.63932 -3.6916,-4.7303 -4.90625,-6.89063 -0.40694,-0.72294 -0.69398,-1.71839 -1.16797,-2.3789 -0.0586,-0.0817 -1.0552,-0.78209 -1.20703,-0.92774 -0.52409,-0.50175 -2.047,-2.02421 -2.42773,-2.65234 -1.86052,-3.06283 -2.47219,-6.74752 -3.41016,-10.16797 -0.34913,-1.27708 -1.68243,-2.15109 -2.36914,-3.20312 -0.45164,-0.69518 -0.80691,-1.68966 -1.16992,-2.44727 1.42429,-0.9819 2.84618,-2.06053 4.31054,-2.97461 0.46937,-0.29133 1.09869,-0.40625 1.57422,-0.69141 1.10059,-0.66051 2.20271,-1.47177 3.25782,-2.20703 0.50867,-0.35531 1.14334,-0.76776 1.59961,-1.18164 0.67745,-0.61426 1.23352,-1.39426 1.91406,-2.0039 0.48633,-0.43391 1.23534,-0.74502 1.67773,-1.20899 1.2925,-1.35723 2.47777,-2.96855 3.68164,-4.41211 0.0316,-0.0378 0.54517,-1.33474 0.64844,-1.58984 -0.38073,-0.81465 0.21665,-2.64442 0.26367,-3.55078 0.0724,-1.35647 -0.31739,-2.77142 0.0254,-4.13868 0.29519,-1.18227 1.01,-2.40447 1.22657,-3.58984 l 0.0156,-2.18359 c 0,-0.42544 0.0578,-0.66868 0.01,-1.0918 -0.0825,-0.716 -1.91229,-2.26394 -2.43946,-2.62695 -0.95106,0.0802 -1.30944,-0.96738 -1.85742,-1.4668 -0.21965,-0.20116 -0.62543,-0.28702 -0.85742,-0.48047 -1.74105,-1.45512 -3.45912,-3.1724 -4.64063,-5.12695 l -0.62304,-1.42383 c -0.12023,-0.27823 -0.25311,-0.41539 -0.3086,-0.71289 l -0.16992,-2.80469 c -0.0331,-0.54644 -0.082,-0.85436 -0.082,-1.40234 0,-0.21503 0.27982,-2.608 0.36914,-2.79297 l 3.30859,-6.83398 c 0.57649,-1.19153 -0.0611,-3.19063 -0.0117,-4.44922 0.0632,-1.5607 0.3838,-3.23731 0.57031,-4.79492 0.21118,-1.77112 -0.40214,-4.00129 -1.04492,-5.58204 -0.28901,-0.71214 -0.86704,-1.35734 -1.16993,-2.0664 -0.121,-0.28517 -0.0621,-0.80679 -0.17578,-1.10352 -0.84933,-2.2189 -2.24918,-5.39118 -2.90429,-7.57617 -0.0185,-0.0647 -0.19085,-2.57702 -0.20704,-2.81055 -1.12216,-0.14798 -2.20012,-0.389 -3.26757,-0.75586 -1.07746,-0.37071 -7.35936,-2.25823 -7.75782,-2.94726 -0.36146,-0.81851 -0.12106,-1.86912 -0.041,-2.72461 l -1.09766,0.14062 -0.41211,-0.44726 0.30664,-0.68945 0.44532,-0.27735 0.92773,0.10156 0.24024,-0.27539 -0.79493,-2.23828 c 0.316,-0.65742 0.61389,-1.32603 0.88672,-2.00195 l -0.41211,-0.96289 c -0.78151,-0.64818 -3.11488,-0.33458 -3.94726,-0.0625 -0.39384,-0.34528 -0.26175,-1.83992 -0.17774,-2.27539 l -0.24023,-0.33985 -0.34375,-0.14062 c -0.7738,0.33912 -2.83226,1.04201 -3.70703,0.80078 l -1.30664,-0.89258 c -1.7688,-1.20848 -1.86796,0.0702 -2.95313,-0.33984 -0.46783,-0.62582 -1.65267,-1.57445 -2.47656,-1.64844 -0.3476,-1.153 0.71339,-3.38147 1.29297,-4.3125 l -1.82617,-3.33789 c -0.26282,-0.47939 0.336,-2.12884 0.54101,-2.55273 l -0.31055,-0.51758 -1.68359,-0.68555 c -0.43391,-0.53795 -0.76902,-1.21957 -1.10351,-1.82227 -0.15337,-1.67631 1.10218,-4.04388 1.11914,-5.14062 0.0123,-0.958 -0.6177,-1.99481 -0.008,-2.92969 l 0.85742,-0.6582 c 0.76455,0.0686 2.27152,0.0817 2.98829,-0.28125 0.93873,-0.71291 0.53978,-2.4167 0.84961,-3.38086 0.0725,-0.22814 0.91973,-1.25779 0.99218,-1.48438 0.29364,-0.91791 0.35445,-2.23746 0.50782,-3.20703 0.38613,-0.72524 2.53297,-1.36846 3.25976,-1.66211 0.78922,-0.66821 1.01224,-3.52323 0.67774,-4.48046 -0.0524,-0.15106 -0.47759,-0.60304 -0.60938,-0.71094 l -0.39062,-0.32227 -3.7129,-0.88672 0.27149,-1.24218 c 0.47553,-0.27438 2.18499,-1.31986 2.40234,-1.83008 -0.0809,-0.32139 -0.44057,-0.73268 -0.72265,-0.89453 l -1.375,0.0723 -1.75586,-1.30664 c -0.80463,0.19268 -1.90986,0.23248 -2.7168,0.006 l -0.82617,-0.65234 c -0.47245,-0.85088 0.0664,-2.0117 0.0957,-2.89649 0,-0.0832 -0.32075,-1.28198 -0.38086,-1.47851 -0.88016,-1.36032 -2.64417,-0.93203 -3.30469,-1.81836 -0.53719,-0.82235 -0.92786,-2.48783 -0.625,-3.45508 -0.96645,-0.57187 -1.95627,-0.63648 -2.95898,-1.01953 -0.21734,-0.0825 -3.45896,-1.51481 -3.54297,-1.57031 -0.36146,-0.23661 -0.48432,-0.47091 -0.79492,-0.77149 -1.14144,-1.10368 -2.21309,-2.21836 -3.28516,-3.39062 -0.55569,-0.60733 -1.28115,-1.57183 -1.93164,-2.11133 -0.0424,-0.0354 -1.21552,-0.7368 -1.23633,-0.74219 -1.284,-0.32139 -2.76927,-0.21974 -4.0371,-0.57812 -1.29789,-0.36763 -4.50558,-2.01237 -5.68555,-2.88868 -1.40271,-1.04201 -2.89094,-2.23572 -4.20117,-3.39257 -0.63661,-0.56186 -2.30912,-2.4352 -2.80469,-3.125 l -0.24609,-0.74414 c -0.3237,-2.87941 -0.49929,-5.99117 -0.99024,-8.83204 -0.18651,-1.07824 -0.93804,-3.48086 -1.32031,-4.53906 -0.19731,-0.54181 -0.80666,-1.23159 -1.17969,-1.68554 -0.0555,-0.0671 -0.67327,-0.84027 -0.71875,-0.8711 -1.00347,-0.70366 -1.92473,-1.40908 -3.13476,-1.73047 -2.25352,-0.60039 -6.47765,-1.15177 -8.24415,-2.88281 -2.55723,-2.50252 -5.3052,-5.71353 -8.45898,-7.50391 -1.14221,-0.64894 -2.65471,-1.0956 -3.88476,-1.60351 -1.92526,-0.79615 -3.04499,-1.34144 -5.10743,-0.57227 -0.40309,0.45087 -0.66349,0.6163 -0.79297,1.20899 -0.20733,0.95569 -0.0592,0.6877 -0.5625,1.47461 l -0.37304,-0.12305 c -0.14335,-0.16263 -1.41348,-1.63746 -1.48438,-1.69141 -0.48633,-0.37071 -1.32023,-0.53958 -1.85742,-0.86328 -0.75684,-0.45626 -1.6169,-1.09892 -2.31055,-1.64844 -1.24625,-0.98653 -2.33995,-2.18323 -3.63476,-3.1289 -0.46474,-0.33989 -1.17389,-0.78036 -1.69336,-1.0293 -1.08749,-0.52332 -3.08118,-0.90899 -3.58985,-2.22461 -0.23429,-1.67554 -0.0294,-3.38269 0.0762,-5.06054 l 0.0781,-1.25 c -0.0771,-0.5819 -0.55867,-1.3388 -0.96484,-1.71876 l -0.85156,-0.79687 c -1.71331,-1.09904 -4.04353,0.77943 -5.11329,1.99023 l -1.15625,0.25 c -0.054,-0.0501 -0.51897,-0.46408 -0.53515,-0.49414 -0.49172,-0.87553 -0.98343,-2.00427 -1.57227,-2.80273 -1.08826,-1.47516 -3.45873,-3.20023 -5.04101,-4.07422 l -0.58008,-1.27734 0.12305,-1.15625 0.86523,-0.74414 1.03125,-0.16602 c 1.16687,0.78459 3.02734,1.81749 4.45703,2.01172 l 1.40235,-0.62109 c 0.52101,-0.48787 0.90983,-1.4334 1,-2.10547 l 0.1914,-1.40235 c -0.0331,-0.75993 -0.79308,-2.65932 -1.28711,-3.25586 -0.33988,-0.41156 -0.57732,-0.60292 -0.94726,-0.98828 l -1.9043,-1.97656 -2.23047,-1.03906 c -1.0474,-0.4894 -2.16094,-0.91013 -3.30469,-1.13672 -0.90174,-0.17804 -1.99986,-0.0491 -2.84765,-0.61328 l -1.98438,-1.67188 -0.99219,-0.83789 c -0.29672,-1.00657 -0.46071,-2.1056 -0.55859,-3.14453 -0.24432,-2.58807 -0.40435,-4.27045 1.33594,-6.45312 l 1.09765,-1.37696 -0.002,-0.61914 c -0.12794,-0.17033 -0.40471,-0.61709 -0.57812,-0.69726 -0.0586,-0.0277 -0.59371,-0.28753 -0.61914,-0.28907 -1.46206,-0.10482 -0.97937,0.40506 -2.64258,-0.2832 l -0.49805,-0.20508 -0.49805,-1.48242 0.49024,-2.39453 -0.74805,-1.97656 c 0.17649,-0.50713 0.45268,-1.83092 0.16211,-2.34961 l -0.62305,-0.33008 -0.72656,0.40039 c -2.22815,1.22313 -1.55165,0.63595 -3.73047,1.09375 -1.26938,0.26667 -2.10022,1.60172 -3.17383,2.07031 l -2.47656,0.61133 c -0.48247,0.11869 -0.7423,0.24227 -1.23633,0.30469 -0.25742,0.0324 -0.40469,-0.0402 -0.66211,-0.0664 l -1.32031,-0.13476 c -0.97881,-0.27283 -2.27999,-1.09613 -3.13086,-1.58399 -0.90868,-0.52024 -2.85822,-1.36853 -3.25976,-2.49609 -0.14181,-0.65511 -0.20569,-1.86503 0.0625,-2.50781 0.53796,-1.28942 1.33482,-2.77326 1.71093,-4.10352 l -0.0508,-1.74805 c -0.0147,-0.0563 -0.63489,-1.19586 -0.70117,-1.32226 l 0.27344,-1.11328 -0.27734,-0.76563 c -3.06979,-1.5214 -6.18871,-2.98031 -9.22071,-4.57031 -1.12371,-0.5896 -2.20864,-1.41187 -3.35547,-1.9375 -0.52177,-0.2397 -2.1515,-0.19354 -2.71875,-0.0625 l -2.71484,2.09766 c -0.11329,-0.0339 -0.84654,-0.24071 -0.9082,-0.2754 -0.0316,-0.0185 -1.39844,-1.24804 -1.39844,-1.24804 -0.76609,-1.57072 -3.94497,-6.81428 -2.11914,-8.48828 0.73372,-0.37611 2.38307,0.24723 3.00195,0.61718 1.20001,-0.41311 2.74716,-2.31555 2.08203,-3.625 -3.71101,-3.17767 -7.32849,-6.47314 -10.98633,-9.71093 -0.0154,-0.0123 -0.71913,-1.86919 -0.77539,-2.01563 0.0933,-0.5765 0.48747,-1.63689 0.97071,-2.02148 l 0.83789,-0.21289 c 0.38381,0.25896 1.34353,0.62791 1.81445,0.41211 l 0.0762,-0.35547 c -0.90175,-0.77379 -3.61409,-3.23296 -4.1875,-4.21485 -0.17264,-0.2952 -1.26341,-3.57405 -1.24414,-4.01953 0.0393,-0.90405 0.37141,-2.03303 0.53711,-2.93555 -0.39846,-0.83314 -1.11481,-1.6923 -1.85547,-2.24414 -0.35068,-0.26204 -1.02694,-0.27357 -1.36914,-0.54101 -0.50328,-0.39153 -1.16932,-1.38591 -1.24023,-2.04102 0.16494,-1.04124 1.2946,-2.53543 2.04297,-3.21289 -0.0701,-0.10096 -0.72006,-1.0586 -0.75782,-1.08789 -1.10521,-0.89172 -3.56803,-2.66354 -4.45898,-3.59766 -0.0601,-0.0624 -1.1618,-2.20377 -1.31055,-2.45117 -0.31908,-0.53256 -0.74122,-1.05423 -1.09961,-1.56445 -0.0362,-0.97419 -0.4863,-4.03785 0.23047,-4.89258 -1.19153,-2.74222 1.41647,-5.774224 -0.20898,-7.404296 C 604.09387,94.719728 602.0526,93.938987 600,93.183152 Z"
     id="rect8"
     inkscape:connector-curvature="0" />
  <g
     transform="translate(450,328.91167)"
     id="g10"
     style="fill:#00853f">
    <g
       id="c">
      <path
         id="t"
         d="M 0,-100 0,0 50,0 Z"
         transform="matrix(0.95105652,0.30901699,-0.30901699,0.95105652,-30.901699,-4.8943484)"
         inkscape:connector-curvature="0" />
      <use
         xlink:href="#t"
         transform="scale(-1,1)"
         id="use14"
         x="0"
         y="0"
         width="100%"
         height="100%" />
    </g>
    <use
       xlink:href="#c"
       transform="matrix(0.30901699,0.95105652,-0.95105652,0.30901699,0,0)"
       id="use16"
       x="0"
       y="0"
       width="100%"
       height="100%" />
    <use
       xlink:href="#c"
       transform="matrix(-0.80901699,0.58778525,-0.58778525,-0.80901699,0,0)"
       id="use18"
       x="0"
       y="0"
       width="100%"
       height="100%" />
    <use
       xlink:href="#c"
       transform="matrix(-0.80901699,-0.58778525,0.58778525,-0.80901699,0,0)"
       id="use20"
       x="0"
       y="0"
       width="100%"
       height="100%" />
    <use
       xlink:href="#c"
       transform="matrix(0.30901699,-0.95105652,0.95105652,0.30901699,0,0)"
       id="use22"
       x="0"
       y="0"
       width="100%"
       height="100%" />
  </g>
</svg>
